<mxfile host="app.diagrams.net" agent="Mozilla/5.0 (Windows NT 10.0; Win64; x64) AppleWebKit/537.36 (KHTML, like Gecko) Chrome/131.0.0.0 Safari/537.36" version="24.8.3">
  <diagram name="Página-1" id="NLJITl8Ik6W-Ena0FuUY">
    <mxGraphModel dx="2501" dy="833" grid="1" gridSize="10" guides="1" tooltips="1" connect="1" arrows="1" fold="1" page="1" pageScale="1" pageWidth="827" pageHeight="1169" math="0" shadow="0">
      <root>
        <mxCell id="0" />
        <mxCell id="1" parent="0" />
        <mxCell id="iNa71B6rXoqSezd_o_Xe-63" value="" style="rounded=0;whiteSpace=wrap;html=1;" parent="1" vertex="1">
          <mxGeometry x="-320" y="20" width="1580" height="780" as="geometry" />
        </mxCell>
        <mxCell id="iNa71B6rXoqSezd_o_Xe-12" value="" style="rounded=0;whiteSpace=wrap;html=1;strokeColor=#000000;" parent="1" vertex="1">
          <mxGeometry x="-70" y="390" width="200" height="90" as="geometry" />
        </mxCell>
        <mxCell id="iNa71B6rXoqSezd_o_Xe-3" value="" style="rounded=0;whiteSpace=wrap;html=1;strokeColor=#000000;" parent="1" vertex="1">
          <mxGeometry x="-280" y="300" width="150" height="100" as="geometry" />
        </mxCell>
        <mxCell id="iNa71B6rXoqSezd_o_Xe-17" style="edgeStyle=orthogonalEdgeStyle;rounded=0;orthogonalLoop=1;jettySize=auto;html=1;entryX=0;entryY=0.5;entryDx=0;entryDy=0;strokeWidth=3;strokeColor=#808080;" parent="1" source="iNa71B6rXoqSezd_o_Xe-2" target="iNa71B6rXoqSezd_o_Xe-7" edge="1">
          <mxGeometry relative="1" as="geometry">
            <Array as="points">
              <mxPoint x="-99" y="350" />
              <mxPoint x="-99" y="305" />
            </Array>
          </mxGeometry>
        </mxCell>
        <mxCell id="iNa71B6rXoqSezd_o_Xe-2" value="" style="shape=image;verticalLabelPosition=bottom;labelBackgroundColor=default;verticalAlign=top;aspect=fixed;imageAspect=0;image=https://www.residentevildatabase.com/wp-content/uploads/2019/01/Logo-Novo-272-90.png;" parent="1" vertex="1">
          <mxGeometry x="-280" y="324.85999999999996" width="152" height="50.29" as="geometry" />
        </mxCell>
        <mxCell id="iNa71B6rXoqSezd_o_Xe-4" value="&lt;b&gt;Source&lt;/b&gt;" style="text;html=1;align=center;verticalAlign=middle;resizable=0;points=[];autosize=1;strokeColor=none;fillColor=none;" parent="1" vertex="1">
          <mxGeometry x="-280" y="270" width="60" height="30" as="geometry" />
        </mxCell>
        <mxCell id="iNa71B6rXoqSezd_o_Xe-5" value="" style="rounded=0;whiteSpace=wrap;html=1;strokeColor=default;" parent="1" vertex="1">
          <mxGeometry x="170" y="480" width="740" height="220" as="geometry" />
        </mxCell>
        <mxCell id="iNa71B6rXoqSezd_o_Xe-18" style="edgeStyle=orthogonalEdgeStyle;rounded=0;orthogonalLoop=1;jettySize=auto;html=1;strokeWidth=3;strokeColor=#808080;" parent="1" source="iNa71B6rXoqSezd_o_Xe-7" target="iNa71B6rXoqSezd_o_Xe-12" edge="1">
          <mxGeometry relative="1" as="geometry" />
        </mxCell>
        <mxCell id="iNa71B6rXoqSezd_o_Xe-7" value="" style="rounded=0;whiteSpace=wrap;html=1;strokeColor=#000000;" parent="1" vertex="1">
          <mxGeometry x="-70" y="260" width="200" height="90" as="geometry" />
        </mxCell>
        <mxCell id="iNa71B6rXoqSezd_o_Xe-9" value="&lt;b&gt;WEB Scraping&lt;/b&gt;" style="text;html=1;align=center;verticalAlign=middle;resizable=0;points=[];autosize=1;strokeColor=none;fillColor=none;" parent="1" vertex="1">
          <mxGeometry x="-70" y="230" width="110" height="30" as="geometry" />
        </mxCell>
        <mxCell id="iNa71B6rXoqSezd_o_Xe-10" value="" style="shape=image;verticalLabelPosition=bottom;labelBackgroundColor=default;verticalAlign=top;aspect=fixed;imageAspect=0;image=https://datascientest.com/en/files/2024/01/beautiful-soup.png;" parent="1" vertex="1">
          <mxGeometry x="-46" y="270" width="152" height="65.15" as="geometry" />
        </mxCell>
        <mxCell id="iNa71B6rXoqSezd_o_Xe-11" value="" style="shape=image;verticalLabelPosition=bottom;labelBackgroundColor=default;verticalAlign=top;aspect=fixed;imageAspect=0;image=https://upload.wikimedia.org/wikipedia/commons/thumb/c/c3/Python-logo-notext.svg/640px-Python-logo-notext.svg.png;" parent="1" vertex="1">
          <mxGeometry x="6.25" y="408.91" width="47.5" height="52.17" as="geometry" />
        </mxCell>
        <mxCell id="iNa71B6rXoqSezd_o_Xe-15" value="&lt;b&gt;Ingestion&lt;/b&gt;" style="text;html=1;align=center;verticalAlign=middle;resizable=0;points=[];autosize=1;strokeColor=none;fillColor=none;" parent="1" vertex="1">
          <mxGeometry x="-73.75" y="360" width="80" height="30" as="geometry" />
        </mxCell>
        <mxCell id="iNa71B6rXoqSezd_o_Xe-24" value="" style="group;strokeColor=#B3B3B3;dashed=1;" parent="1" vertex="1" connectable="0">
          <mxGeometry x="442" y="520" width="200" height="120" as="geometry" />
        </mxCell>
        <mxCell id="iNa71B6rXoqSezd_o_Xe-25" value="" style="rounded=0;whiteSpace=wrap;html=1;dashed=1;" parent="iNa71B6rXoqSezd_o_Xe-24" vertex="1">
          <mxGeometry width="200" height="120" as="geometry" />
        </mxCell>
        <mxCell id="iNa71B6rXoqSezd_o_Xe-26" value="Object Storage - &#xa;Silver" style="shape=image;verticalLabelPosition=bottom;labelBackgroundColor=default;verticalAlign=top;aspect=fixed;imageAspect=0;image=https://seeklogo.com/images/M/minio-logo-4B2D780928-seeklogo.com.png;" parent="iNa71B6rXoqSezd_o_Xe-24" vertex="1">
          <mxGeometry x="50" y="23" width="100" height="43.33" as="geometry" />
        </mxCell>
        <mxCell id="iNa71B6rXoqSezd_o_Xe-27" value="" style="group;strokeColor=#B3B3B3;dashed=1;" parent="1" vertex="1" connectable="0">
          <mxGeometry x="663" y="520" width="200" height="120" as="geometry" />
        </mxCell>
        <mxCell id="iNa71B6rXoqSezd_o_Xe-28" value="" style="rounded=0;whiteSpace=wrap;html=1;dashed=1;" parent="iNa71B6rXoqSezd_o_Xe-27" vertex="1">
          <mxGeometry width="200" height="120" as="geometry" />
        </mxCell>
        <mxCell id="iNa71B6rXoqSezd_o_Xe-29" value="Object Storage - &#xa;Gold" style="shape=image;verticalLabelPosition=bottom;labelBackgroundColor=default;verticalAlign=top;aspect=fixed;imageAspect=0;image=https://seeklogo.com/images/M/minio-logo-4B2D780928-seeklogo.com.png;" parent="iNa71B6rXoqSezd_o_Xe-27" vertex="1">
          <mxGeometry x="50" y="23" width="100" height="43.33" as="geometry" />
        </mxCell>
        <mxCell id="iNa71B6rXoqSezd_o_Xe-33" value="&lt;b&gt;JSON&lt;/b&gt;" style="rounded=0;whiteSpace=wrap;html=1;dashed=1;dashPattern=1 4;" parent="1" vertex="1">
          <mxGeometry x="256" y="650" width="120" height="20" as="geometry" />
        </mxCell>
        <mxCell id="iNa71B6rXoqSezd_o_Xe-34" value="&lt;b&gt;PARQUET&lt;/b&gt;" style="rounded=0;whiteSpace=wrap;html=1;dashed=1;dashPattern=1 4;" parent="1" vertex="1">
          <mxGeometry x="436" y="650" width="430" height="20" as="geometry" />
        </mxCell>
        <mxCell id="iNa71B6rXoqSezd_o_Xe-46" style="edgeStyle=orthogonalEdgeStyle;rounded=0;orthogonalLoop=1;jettySize=auto;html=1;strokeColor=#808080;strokeWidth=3;startArrow=classic;startFill=1;" parent="1" source="iNa71B6rXoqSezd_o_Xe-39" edge="1">
          <mxGeometry relative="1" as="geometry">
            <mxPoint x="546" y="520" as="targetPoint" />
          </mxGeometry>
        </mxCell>
        <mxCell id="iNa71B6rXoqSezd_o_Xe-47" style="edgeStyle=orthogonalEdgeStyle;rounded=0;orthogonalLoop=1;jettySize=auto;html=1;strokeWidth=3;strokeColor=#808080;startArrow=classic;startFill=1;" parent="1" source="iNa71B6rXoqSezd_o_Xe-39" target="iNa71B6rXoqSezd_o_Xe-28" edge="1">
          <mxGeometry relative="1" as="geometry">
            <Array as="points">
              <mxPoint x="620" y="430" />
              <mxPoint x="763" y="430" />
            </Array>
          </mxGeometry>
        </mxCell>
        <mxCell id="iNa71B6rXoqSezd_o_Xe-48" style="edgeStyle=orthogonalEdgeStyle;rounded=0;orthogonalLoop=1;jettySize=auto;html=1;strokeColor=#808080;strokeWidth=3;entryX=0;entryY=0.5;entryDx=0;entryDy=0;" parent="1" source="iNa71B6rXoqSezd_o_Xe-39" edge="1" target="iNa71B6rXoqSezd_o_Xe-49">
          <mxGeometry relative="1" as="geometry">
            <mxPoint x="850" y="340" as="targetPoint" />
          </mxGeometry>
        </mxCell>
        <mxCell id="iNa71B6rXoqSezd_o_Xe-39" value="" style="rounded=0;whiteSpace=wrap;html=1;" parent="1" vertex="1">
          <mxGeometry x="436" y="271.42" width="220" height="137.49" as="geometry" />
        </mxCell>
        <mxCell id="iNa71B6rXoqSezd_o_Xe-41" value="&lt;b&gt;Processing&lt;/b&gt;" style="text;html=1;align=center;verticalAlign=middle;resizable=0;points=[];autosize=1;strokeColor=none;fillColor=none;" parent="1" vertex="1">
          <mxGeometry x="437" y="241.42" width="90" height="30" as="geometry" />
        </mxCell>
        <mxCell id="iNa71B6rXoqSezd_o_Xe-42" value="" style="shape=image;verticalLabelPosition=bottom;labelBackgroundColor=default;verticalAlign=top;aspect=fixed;imageAspect=0;image=https://numfocus.org/wp-content/uploads/2016/07/pandas-logo-300.png;" parent="1" vertex="1">
          <mxGeometry x="496" y="290.16" width="100" height="100" as="geometry" />
        </mxCell>
        <mxCell id="iNa71B6rXoqSezd_o_Xe-49" value="" style="rounded=0;whiteSpace=wrap;html=1;" parent="1" vertex="1">
          <mxGeometry x="1000" y="272.84000000000003" width="220" height="137.49" as="geometry" />
        </mxCell>
        <mxCell id="iNa71B6rXoqSezd_o_Xe-50" value="&lt;b&gt;DataViz&lt;/b&gt;" style="text;html=1;align=center;verticalAlign=middle;resizable=0;points=[];autosize=1;strokeColor=none;fillColor=none;" parent="1" vertex="1">
          <mxGeometry x="1000" y="241.42" width="70" height="30" as="geometry" />
        </mxCell>
        <mxCell id="iNa71B6rXoqSezd_o_Xe-51" value="" style="shape=image;verticalLabelPosition=bottom;labelBackgroundColor=default;verticalAlign=top;aspect=fixed;imageAspect=0;image=https://images.datacamp.com/image/upload/v1640050215/image27_frqkzv.png;" parent="1" vertex="1">
          <mxGeometry x="1040" y="303.39000000000004" width="150.48" height="88.03" as="geometry" />
        </mxCell>
        <mxCell id="iNa71B6rXoqSezd_o_Xe-22" value="" style="rounded=0;whiteSpace=wrap;html=1;dashed=1;" parent="1" vertex="1">
          <mxGeometry x="216" y="520" width="200" height="120" as="geometry" />
        </mxCell>
        <mxCell id="iNa71B6rXoqSezd_o_Xe-21" value="Object Storage - &#xa;Bronze" style="shape=image;verticalLabelPosition=bottom;labelBackgroundColor=default;verticalAlign=top;aspect=fixed;imageAspect=0;image=https://seeklogo.com/images/M/minio-logo-4B2D780928-seeklogo.com.png;" parent="1" vertex="1">
          <mxGeometry x="266" y="543" width="100" height="43.33" as="geometry" />
        </mxCell>
        <mxCell id="iNa71B6rXoqSezd_o_Xe-64" value="&lt;h1 style=&quot;margin-top: 0px;&quot;&gt;&lt;font style=&quot;&quot; color=&quot;#6e6e6e&quot;&gt;&lt;u&gt;Pipeline Architecture&lt;/u&gt;&lt;/font&gt;&lt;/h1&gt;&lt;p&gt;[ENG] - Applying engineering techniques to medallion architecture processes.&lt;/p&gt;&lt;p&gt;&lt;br&gt;&lt;/p&gt;&lt;p&gt;[PT] -&amp;nbsp;Aplicando tecninca de engenharia para processos de arquitetura de medallion.&lt;/p&gt;" style="text;html=1;whiteSpace=wrap;overflow=hidden;rounded=0;" parent="1" vertex="1">
          <mxGeometry x="-310" y="620" width="298" height="170" as="geometry" />
        </mxCell>
        <mxCell id="iNa71B6rXoqSezd_o_Xe-66" value="" style="group" parent="1" vertex="1" connectable="0">
          <mxGeometry x="270" y="710" width="580" height="50" as="geometry" />
        </mxCell>
        <mxCell id="iNa71B6rXoqSezd_o_Xe-52" value="" style="rounded=0;whiteSpace=wrap;html=1;strokeColor=default;" parent="iNa71B6rXoqSezd_o_Xe-66" vertex="1">
          <mxGeometry width="580" height="50" as="geometry" />
        </mxCell>
        <mxCell id="iNa71B6rXoqSezd_o_Xe-53" value="" style="shape=image;verticalLabelPosition=bottom;labelBackgroundColor=default;verticalAlign=top;aspect=fixed;imageAspect=0;image=https://miro.medium.com/v2/resize:fit:383/1*co_1qORNdM0PI1nvCp7Iig.png;" parent="iNa71B6rXoqSezd_o_Xe-66" vertex="1">
          <mxGeometry x="25.998565022421502" y="7.083333333333371" width="35.833333333333336" height="35.833333333333336" as="geometry" />
        </mxCell>
        <mxCell id="iNa71B6rXoqSezd_o_Xe-54" value="" style="shape=image;verticalLabelPosition=bottom;labelBackgroundColor=default;verticalAlign=top;aspect=fixed;imageAspect=0;image=https://upload.wikimedia.org/wikipedia/commons/thumb/c/c2/GitHub_Invertocat_Logo.svg/800px-GitHub_Invertocat_Logo.svg.png;" parent="iNa71B6rXoqSezd_o_Xe-66" vertex="1">
          <mxGeometry x="90.00488789237664" y="8.333333333333371" width="35.833333333333336" height="35.833333333333336" as="geometry" />
        </mxCell>
        <mxCell id="iNa71B6rXoqSezd_o_Xe-56" value="" style="shape=image;verticalLabelPosition=bottom;labelBackgroundColor=default;verticalAlign=top;aspect=fixed;imageAspect=0;image=data:image/jpeg,/9j/4AAQSkZJRgABAQAAAQABAAD/2wCEAAkGBxAODxANDg8ODQ8NEBAPDw0QEBAPDQ8NFREYFhYSFRUYHSggGBooHhUVITEiJSkrLi4uFx81ODMtNygtLjcBCgoKDg0OGBAQGislHh4rNy0tLS0tLS0wKystLS0tKy0tLy0tLS0rLy0tLS0tLSstLS0tLS0rLS0tLS0tLS0tLf/AABEIAOAA4AMBEQACEQEDEQH/xAAbAAEBAAIDAQAAAAAAAAAAAAAAAQIHAwUGBP/EADsQAAIBAwEFBQYEBAYDAAAAAAABAgMEESEFBjFBURI1YXOxEyJScYGhB5HB0RQyQpIjU2OCsvCiwuH/xAAbAQEBAAMBAQEAAAAAAAAAAAAAAQMEBgIFB//EADIRAQACAQIEBAQFBAMBAAAAAAABAgMEESExNHEFEkFREzJhsSIzgaHRkcHh8UJy8GL/2gAMAwEAAhEDEQA/AN4gAOn3weLC5a0apPX6o29D1FO7U13HT37NX7Ovvae7LSaX9y6o6bJTyz9H5/n0234qcvt/h9h4aaBUYECoFRhUYViQRhUZVQKxAjIqMKxZVRkVGFYhUYViwqAbb3OjixoeMW//ACZzer/Ot3d14d0uPs7o1m6AAAHTb4933XlP1Rt6DqKd2rrunv2aUXJptNPKa0afVHYTG8bS42JmJ3h3mzb1Vk4SwqsVlrgpx+KP6o0718k/Rq6jSxt8THy9Y9n1sj56BUYECsQqMioVUIMWVUYVAqMggViwqMKgViFRhWLCowNwbqrFlbeWjmdVO+a3d3mgjbTY4+jtTA2wAAA6bfHu+68p+qNvQdRTu1dd09+zSh2DjBp6OLcZReYyWjjLqiTETG0vVbzWd4d9s2+Vwuy0o14L3oLhUXxxXXqjSvWcc8eTBqdLFo+JjjvH8Ocr5iBUYVAIyKjKrEKgVGBArEioFRgRhWLCoFQKxYVGFbq2RT7FvQj0pU/z7Kycrlne9p+r9BwV8uOse0R9n1nhlAAADpt8e77ryn6o29B1FO7V13T37NKHYOMUIwmnlTg3GcHmMk8NP5nmYiY2lkx3msvRbMvVdpp4jcRWZQ4KqlxlHx6o0bxOLn8v27sep0kZN74+frH94Znt8lAqMKgEZFRlVArFkEYVCqhFQKxYEYVArEKjCsqFJ1JxprjUlGC+cnhep5vby1m3syYqee9ae87N4xWFhaJaJeByj9DUAAAAdNvj3fdeU/VG3oeop3auu6e/ZpQ69xgEUDjnFpqpBuMovKa0aa5rxPNoiY2llx32el2dfRvY4wo3MVmUVpGuviiuUuqNG1Zwzx+X7PGp0sZY89I/F6x7jPb5KARhWJVRgRhUCoyCMKjKrEioFRhWLKqEECu63Mtva31FYyoN1H/tWn3wamuv5cM/Xg+n4Tj8+qr9OLbRzrtAAAAAdNvj3fdeU/VG3oeop3auu6e/ZpQ69xigCIAcM4uDVSDcWnlNaOL6o8zETwlmx3ep2deq/WHiF1FarhGul/UukvA0LVnB/wBfsmo00Z/xV+b7/wCXHJY0ejWjXPJlfHmNuEoURhUCsWQGFYlVCKjAjCoFYhUYVGFYge0/DO1zUr1nwhCMF85Nt4/t+58rxS/Ctf1dF4Bj43v+jYJ8d0oAAAAOm3x7vuvKfqjb0PUU7tXXdPfs0ode4xSAEUAQfPJOnJSi3Fp5jJPDTXieZjfhLPS71ezr2N/HsyxC7gvlGulzXSRoWrOCf/n7GfT1zx5q8LfdwzTTw001xT0aZmid3x5iYnaWJRCCFVGQQKjKrEiowqMKgGIVGFRhW1NxbL2NlBtYlWbqv5PRfZI57XZPPmn6cHaeFYfhaavvPH/36PQmm+kAAAADpt8e77ryn6o29D1FO7V13T37NKI65xihAgoAA1nRkInZ83vQkmm04vMZLRp9STG/CWetvWHrrC+jfx7E+zC6gtHwjWj+58+1JwTvHyz+z1mwxqI3jhaP3fNUg4txkmmtGnxyZ4mJjeHx7Vms7TzhgVEZBCqhFRgQKgViFRlVGQQK59nWbuK1OhHjVmo56Lm/ossx5cnw6TafRn02Gc2WuOPWW66cFFKMVhRSSXRLgjlpnd38RERtDIKAAAADpt8e77ryn6o29D1FO7V13T37NKI65xihAgoAAQSccrAWJ2fPFuEk03GUXlNaNPqjzMb8JZon1h67Z99C/j2KmIXMFpLlVS/U0L1nBO8fL9nrLirqI9rQ+SrBxbjJNNaNMzRMTG8PkWrNZ2nmwPSIQRhUCoFRhUAxCowqMD2X4b7N7dWpdSXu0l2IPrN8fyX/ACPl+J5dojHHrxdD4Fp97Wyz6cI/u2GfGdMAAAAAB02+Pd915T9UbWh6indq67p79mlDr3GBBQigABBSDCpDPzC1ts4IScWmm4yi8prRpkmN+DNE+sPW7Pv430PZ1MQuIL3Zcpr/ALyNC9JwzvX5Ze8lK567Tzh8telKEnGSw0Zq2i0bw+Tek0nazjZ6eWJFQKjAgVGFRgQKRi20km22kktW2+QmYiN5eq1m0xEc5bk2Ds9WttToc4xzN9ZvV/c5fPl+Jkm3u73S4IwYq449Pv6uwMTYAAAAAA6bfHu+68p+qNrQ9RTu1dd09+zSh1zjACkQAoAgAAOOpDOqI9Vt6OOEmmpJtNPKa0aZJ482TfZ6vZ9/C9h7KriNeC92XxeP/wANG9JwzvXk93pXNXaeb5K9GVOTjJYa/JrqjNW0WjeHy70mk7S4yvKBWIVGVUIIwqMD1f4fbI9tWdzNe5btdnpKq/2Wv1R83xHP5a+SOc/Z93wTS+e85bcq8u/+Gyj4jqgAAAAAAHTb4933XlP1RtaLqKd2rrunv2aUOtcYAUIAUgAABAA4qsOaI91n0Ywk4tNNpp5TWjTExu9vUbPv43cPZVcRqxWkvi8V+xo3xzinzV5Pdq1y12nm+W4oypy7Mvo+TRmraLRvD5t8c0naXCV5AMQqMKgHLaW061SFKmu1OpJRivE85LxSs2nlDLhxWy3ilectx7H2dC0oQoQ1UFrLGHKb4yOYzZZyXm0+ru9Pgrgxxjr6PtMbOAAAAAAA6bfHu+68p+qNrRdRTu1dd09+zSZ1rjVCKQAigABAAACDinHAe4ndjGTTTTaa1TXFMmz09LYX8bqPsqulRcH8XivHwNO9JxzvXk92iMkbS+a4oum8P6Pk0ZK2i0cGhfHNJ2lwnp4AqAYsK2JuBsF0o/xlVe/VilSjjWNN8ZPxen0+Z8TxDU+efh15Rz7uq8H0M4q/GvztHD6R/l7I+a+4AAAAAAAAdNvj3fdeU/VG1ouop3auu6e/ZpM6xxqhAChFAEAAAIABoDhlHBGSJ3IyaaaeGtU1xTJKvQWN9G4j7OppNc/i8V4mrek0neHqYi8bS4Lii4PD1XJ9T3W0WaV6TSXEenhAr0O527/8ZU9pUX+BSa7X+pL4F+po63VfCr5a/NP7Pr+F6D49/Pf5Y/efb+W00saLRLRLkkfAdeoAAAAAAAADpt8e77ryn6o2tF1FO7V13T37NJnWONVBAAQUIAAKQAAAgklkES4miMm6xeHlaNap88iR3lleqtHsVP5v+XivE1r0ms7ws7WjaXDXpOD6rkz3W27UvSavt2Bsape1fZQ92K1qVMZUI/q+iMOo1FcNd55+kNrRaO2pyeWOUc59m3LCzhb040aS7MILCXN+L8Tm73m9ptbnLtsWKuKkUrHCH0HlkAAAAAAAAAHTb4933XlP1RtaL8+ndq63p79mkzrHGiCKQAKACBAAAUgAAMZLJFiXGHtU8arRrmB3+xM3lSFtmKqT0Tk8JpLLfz8DTzzGGs39GbBp7ai/kr/ptnY2yaVnSVKkvGc3/NOWOLOezZrZbeazrNNpqaenkp/t95ibAAAAAAAAAAAdNvj3fdeU/VG1ovz6d2rrenv2aTOrcaAAKECCgAgAIAAAQAMZIPUS4atVRWX9FzZGxg0981tqviVWfbU03GcWnGUW04tPKafJkmImNpdFhw1w18tW5txN8VexVvctRuorR8I14rmukuqOf1uinDPmr8v2b1L+bhL2R89kAAAAAAAAAADpt8u77ryn6o2tF+fTu1db09+zSR1bjgiKBQgAAEAChAgAAAHDXuFHTi+hG7pdFbNxnhX3/h8Ek5PPFsOgx4646+WscHNTp4+YZHLTk4tSi3GUWnGSeJKS4NPkxMRMbSNu7j74K8St7hqNzFaPhGvFc10l1Rz2t0U4Z81fl+zZpk34S9gfPZAAAAAAAAAB02+Xd915T9UbWi/Pp3aut6e/ZpI6pxwBQgAIigAAAgoACN41egWtZtO0c3y1rrlH8yPsaXw6I/Fl/p/LghBv9w+tEbPohBIoNAXAGVObi1KLcZRacZJ4cZLg0+TJMRMbSrbe5G96vEre4ajcxWj4KtHqukuqOe1uinDPmr8v2bOPJ5uEvXnz2QAAAAAAAA6bfLu+68p+qNrRfn07tXW9Pfs0ijqnHKAIigAKECAAAAcNS4S4av7Bv4NBkycZ4Q+Wc3Lj9FyI+zg0+PDG1Y/VnCj1/IrO5kgLgC4AmAKkBnTk4tSi3GUWnGSeJKS4NPkzzMRMbSrbG5O9yvEreu1G5itHwVZLmukuqOf1uinFPmr8v2bOPJvwl64+eyAAAAAAAOm3y7vuvKfqjZ0X59O7V1vT37NInVuOAKRACgABAbCxEzO0OGpcpcPef2Dew+HZL8bcIfPOtKXHRdER9bDo8WLjEbz7yQpZ8CtlzRgkBmkBcAXAFAYAYILgD1+4+6krqSuqrnSo05KUGsxnVmn/AEvkljifN12sjHE468Znn9GXHTfjLa58BsgAAAAAAOm3y7vuvKfqjZ0f59O7V1vT37NIHVOPUIAUIxlUS4tL6kZKYcl/lrMuOV1FcMv5Ddt08OzW58HDO7b4JL7sjdx+GY68bzv+zibcuOWVv0x0pG1Y2Zxo/QPbmjBIDNIC4AoFwBcAXAFwAwB7jc/cqVVxubyPZpaShRf81To5dI+HM+RrPEIjemPn7/wzUx+stmQikkkkklhJLCS6I+JzbCgAAAAAAAfDtywd1bVrdSUHVg4qTWUnyyjLhyfDyRf2Y82OMlJpPq0DtancWdaVvcU1CpDitXGS5Si+afU6jFmrlr5q8nxZ8KxxO0zP7fw+P+Nn4fkZN1jw3D9U/ip9cfJIMkaDBHoxdST4yb8Mhnrgx1+WsLGm+gZXJGiNkckaS+ZRyJAZICpAZAVICgXAFwBcAclGjKclCEZTnJ4jGKbk34I82tFY3meC82yt1Nx40ezXu0qlXSUaPGFN+PxS+x8LV+ITf8GPhHv7timPbjL2x8xlAAAAAAAAAADod7d2KO06XYniFWGXRr496D6PrF80bGm1NsFt45esPNqxaGkNp7JqWlWVCvDsVIcVxTXKUXzTOlxZa5a+avJqzExO0vnUF0RlRmkBkgioCoDJICpAZAVICgZJAUBgDt9hbvXF9LFGOIJ4lWllU4/Xm/BGtqNVjwx+Ln7PdaTZtTd/duhYx/w126jWJ1pfzy+XwrwOf1Gqvnn8XL2bNaRV3JrPQAAAAAAAAAAAAHR717tUto0uxPEKsM+yrYy4Po+sX0NnTam2C28cvWHm1YtDSe09nVbSrKhXj2KkOK5NcpJ80zpMWWuWsWryasxMTtL5kZXlkBUgMkBUgMkBUgKBkkBQOa1tp1pxpUoyqTm8RhFZbPN71pHmtO0LEb8nvt3/AMPksVL6WelCD0/3S5/JfmfH1Hiczwxf1Z64vd72jSjCKhCKhGKxGMVhJdEj5EzMzvLMzIAAAAAAAAAAAAAAAHR71bt0to0uxLEKsE/ZVsZcH0fWL6GzptTbBbeOXrDzasWhpXaezqtrVlQrx7FSHFcmuUk+aZ0uLLXLWLV5NWYmJ2l86MjyoGSAqAyQFQGSA5behOrJQpxlUnLhCKcpP6I82tFY3tO0LEbvZ7C/D6rU9+7l7CP+XHEqr+b4R+58vP4nWvDHG/19GWuKfVsDZeyaFpHsUKUafWWMzl85cWfIy5r5Z3vO7PFYjk+0xKAAAAAAAAAAAAAAAAAADpN6d26W0aXYliFWGfZVsZcH0fWL6GzptTbBbeOXrDzasWhpfaezqtrVlQrx7E4cVya5ST5pnS4stctYtXk1ZiYnaXzIyPLJAVAZAdpsnYF1d60KMpR/zH7tP+58foa+XVYsXzTx9nqtJnk9jsn8N+Erutn/AEqSx+c3+i+p83L4rPLHH6z/AAzRh93t9n7NoW0exQpQpLn2V7z+b4s+Xky3yTvad2WIiOT6zGoAAAAAAAAAAAAAAAAAAAAAB0m9O7lLaFLsyxCrBP2VbGXF9H1i+hs6bU2wW3jl6w82rFoadvNj3FGtK2nRqOrF/wAsIyn2lyccLVM6Omox3pF4mNvq1ZrMTs7Kx3Nv62MW8qaf9VVqC/J6/Yw31+Cn/Lfs9RjtL09h+GfO5udPgow/95fsaOTxaf8AhX+v/v7vcYfeXp9nbo2NvhxoRnJf11f8R5+uho5NZmyc7f04MkUrDvEsaLRLkar2oAAAAAAAAAAAAAAAAB//2Q==;" parent="iNa71B6rXoqSezd_o_Xe-66" vertex="1">
          <mxGeometry x="160.00040358744394" y="7.5" width="36.66666666666667" height="36.66666666666667" as="geometry" />
        </mxCell>
        <mxCell id="iNa71B6rXoqSezd_o_Xe-58" value="" style="shape=image;verticalLabelPosition=bottom;labelBackgroundColor=default;verticalAlign=top;aspect=fixed;imageAspect=0;image=data:image/avif,AAAAIGZ0eXBhdmlmAAAAAGF2aWZtaWYxbWlhZk1BMUIAAAGNbWV0YQAAAAAAAAAoaGRscgAAAAAAAAAAcGljdAAAAAAAAAAAAAAAAGxpYmF2aWYAAAAADnBpdG0AAAAAAAEAAAAsaWxvYwAAAABEAAACAAEAAAABAAAPRAAAKLYAAgAAAAEAAAG1AAANjwAAAEJpaW5mAAAAAAACAAAAGmluZmUCAAAAAAEAAGF2MDFDb2xvcgAAAAAaaW5mZQIAAAAAAgAAYXYwMUFscGhhAAAAABppcmVmAAAAAAAAAA5hdXhsAAIAAQABAAAAw2lwcnAAAACdaXBjbwAAABRpc3BlAAAAAAAABkAAAANIAAAAEHBpeGkAAAAAAwgICAAAAAxhdjFDgQgMAAAAABNjb2xybmNseAABAA0ABoAAAAAOcGl4aQAAAAABCAAAAAxhdjFDgQgcAAAAADhhdXhDAAAAAHVybjptcGVnOm1wZWdCOmNpY3A6c3lzdGVtczphdXhpbGlhcnk6YWxwaGEAAAAAHmlwbWEAAAAAAAAAAgABBAECgwQAAgQBBYYHAAA2TW1kYXQSAAoHGipx/o/CoDKBGxGwBxxQ9li8xnga/OTyLsKpIuMGQPIwG43iDBFKXkdHzKyyKGzi3Wn5sSa/nqtrfh//TTpCxJZ1H9LPo9/MPff+BKYftOu1Hftqi45KRplVZUioZTgVpZ7g0XwP1X5qaebHdD8V0Usf5irwhMSI0QyB2PcespenmOYbowuuKreYe6Oi7YEefiUBDz0X3AcZnoLXd/kL0WPGtkq+/uUf1cZizioUYxCvIU5XFUp6pRd4rpvILQrsaR+XdW5d/+HzvFPjoGtEFHWZmiasKwV3ml89UubdnpDuzf/K01iUUK9QewdrVcfc4yzYoae02jKEL23e9COsUgUWXj6DXV/Pz6ZRaKy1Qv6kcwtXgL9AuRnmTMZwjCTEt2uQDNYou9NwCCYFtxOxOaP0/Q0Tm54yfAFY4vO4wdrmPYfsmR3ZqYBA7EZYJ2IoSor1d7XPQ2qh8pYQdCb1uBrv6WNdrPO7eHKLG+asaG8O0cHDjgzakIq/feA+G0EnQJ6t/jsNgju7eXDAFyu5K20Qf/9XmGEpbWRsRuGvMEAx7ziqICHnma2ClyKzurEsZAUgb5MCc5F0Yfp/q/6qlf9DEd2T/18LMTUcN+cwp5BtrNCWGZBSjPjgI1BpU+MQfhdyCAixnwci8CbL6rhTnnH5Ji3Y1SSoBgHF/3e3sNTSVnGoFxI15oFxnj9V8CSH8A4eIrTG6HIbczHxheRYCQlbebUoaK7crKxDWoguwjxMjhoekif7z1F7XSef+h+PyAxuDqk10ybUVuiscfJw9vO/CCRyEkvVGjEChZptkbhQZtjgetBO5lcpkLZ7X7RlF+d7EdK0VISXzxUuAxjmNym1yWt7O0GL9usKZHsGnp0VMx0mGDki4RKvMwA1gyE3ITLk/xLA23m4y0PLHIcqCqYozY/hSvkrvEjxX6BOCVDtcUbUx1XbfvTOAVDy4428ncgh0jhkHq9OG/4Pg+CWQJ5NUUcabO3qYMk3WZuIjnEdkmGIySG/CELL7En7TeQTDpN0km9mPe9NQEZbbekHL3Sw1SNtDN16vKRK/jdwmDJ1bNy7Ubl71XkwuOs0K23RnwoC2HWgw8oUNYgM0awBSY8DdPG5s8A4Y59RFZvf8JB68CXDpTitTMLf4D/YhNKzgv24Fx/LDCK/axEvQ9FeY/Dkz34JmIFD5DuaPszbV5XcdoRL+gt+JDNCAxkQFv9gDiS7+arMeDNkmWhe9dfeya4rdXURcP5AX5fAohzki/oOi9JlOQSELG4MocvLqiixlNK7N21R0c4K0LWTrTWWx23X1EZOHN1zQRWQo6YtCSdRWXqFc71l+Wl29DhUtPk2TUc8jimuTj5B78lv/4xQYVamN42mLpUk5X6GsqGzsKy6bK+1+sbbX8She7NdHaGGEsBrYpvtDHh1tJi/azhlYCHMRkCrFKJ3zV5XJEYHaIbZ4avuMNikrQ85EkmhZac2njV0N2UC6rCyH1hgK3nhgus1AGy711VUuZS8KE+EevobcDi/HdD+PSCIQBjsGlLb4bbV5C34zZGDfntxENi9e6rX15H1tx+6sfBhPoxXOYT8NS+v6OsfDATxOO3HHMglympGgiqh+kZc9/txJvxW5rSaUhRuJOBsqSHAjszbayL3I09xkfl8qpcGnkfdTq7fbrxNhkq0AO4hTeUe1kpr3QWdJ8mME5KrdrQzStfj9beKl0gyYiNIcZWeB9wNllTuhpU8D/5Furd+Q64xBAAYTQd4LePKETMqYQy6b8NoHHknITVDGOlLFo8V1pSsx40/Hb9cWefNyBIr5kHfve9M9zE63t71/h8uAdKRFhYQNSSj70x2MtAidYFPpXd5lLIF08e8VUM48CKWxA8X9toxJEF8uj9gMhNnSIg+uBADQI90LLiEMxTaqRIcqn86KAmS7vqNkKiO80YoJG046zX1JChuRmCwDAHdx12AQGy+U2XdEKuYFq+EDlf43ma2YYuQHupQRWtiHaokOBMoMtsdmfXBmfl7wxqNyAROKxgL+MDrTZ7/GTNCp2DwYM2OvbHUUp62V3NMg7IWDvsImq3WjksosJzGLJC4EwzDWOtT0/GG6mR9ljeN1q0TP+fqMVyCz0tvVk8BhxkiqF9xyA8t/3al//2oupm/tqg/+R+Osq2u733wZMf+SZTxbdzw6EQN6MlvVJ8+j44v0a272JLnKMu2EcPczmi2UhbcT6GUgP/ZZqnpE0qtkDY7+Ayz/jbBx7IUqdVcUbOVaiko+p8oucRFsah/SAlPJf7M+QlFpurQ/N+r0/8UkKHFlNZEb465KhffaITZleGZAZpiH/30hss5kKQ9mRXDGPcWWJ2We9w6rT8PjvPjWw4sjVXkE0/yV+EFgaPIv66jyb0RuchSTQXD9ms31hb0108kCS9FkxRSGXewjWFiwv9BXD0vgLSHMCN85DgUqeIUVuyWA+7FuJbQ+VCShPL+5uLdlSuD25Y6AFnnAJ1MzZ3rS469IMxg19COcCp4rzt3NrS6FQ+YWk4QLiR/njLNyK8AsKvkEZ/aw2av2WtQXrPCs93///////5K0/8l1/iDlcb3KFACC7lrKrp02xLNP3gVWcClYysN6i6uThkHXms3/RQQYaZpVK5TtaY33rEe7JR0w7c6fmhmBgYRpidUopn18wHbQ6XZ6A3/A7IvsZjnPc+52TgvB90stRCQ2hb0jlnKx1fEoeJibLTD+EzEh2B96RP5blI4Igj7HgXZjpBauDARNoBh/BPA2g+lyD0QnhrYdDbsQ+0nDxUW2u2YFivXLzCq2mRaaEcoGGzQZRFsyCu5L7oPTYMyt4wZtlMQO0NojIJzXbB2E00Y/3ElBX5k4A9g8h3+mohZFNBdy+t+kFNjM6c3ZxItiBzvK/c3fr9FV8bWFbMwNRNobxgCAAsABVgAgBACAEAIAQAKsABVVVP8PMF3Hx0W3hxybeSWn+SksLJWCBcXhCc8y2R+N4+BdmIwNM2SK3CpvhtkTeCneKUOcmyhGDhO/JxRZnLM8xl9VaMMZuj2DM34IqZbbBK0EhziH8H7QoT3+E7qqh7PFozWcCbi7u1BayD7btncT5BvkIZWsr9gB7CgMCW8F4ACwBcasjgCS2luECBU45OPgbALPtsvek4E+xfbqDAdNtsOixuFSzS50tspYDRcGIZCb4vL1KqUwxf7s3xgurVmsgtt5zPAAXSOl2H13RRlex2pX8SOIrhUTyZFiQih2rCzBbX62K5jCKykM/CgKJdgm1hUKJNzAaNcBd7aMOgkgf3hLQL46ACYcSAiu4Hd/Gar4kDIr07EgUD7wdo+ubhCqEJish68YuSRSjxv96FnnBZWcR0xjjmIkqmgs73e+bDwJ6qQ1frHilxP0FTM1g5kUMo62xkDacx+hZBA80Qvx7dhfLuf68N8JKk5xi0WFSFNlW4Tg0PzjK/Q6Jcxhovy2sU+ZFZZbPj3bR+H6WhtlBBeWgMACXVDvTPZndafFbuXFOmQnFAqDLwVIGdUGpn2ppT/tKbXWatYWD7R8VEje9NOKedqIPqGImcFLW4dgBxYRsWQi+NfiD5ABow5ZhZAqqqpXE/gzVs7d7w47X5Rr3QV0NfkgU7Niyj85S2NONG2JMpqE+nIsi9C3M5wweJQSPYtoTWIC3AxvjIgfy9Ce4h3CeiTGxY2WiVFxGe8y5aEi6li7AGBrYFZy2RHHrPVPZ0xzhEFr+WrfV+RbJUTJJ01M9/4yvrpOSKDxBhrNU54sZ4VmNShIXqTENhfjrQQfe4yCTNED5pYBD7Ve9be946URlqyErzIOuTxuB4l9KugE41KW7fSyzFa3gh6T/7Gzq4g+p0fQAP0cwuhNECxXuTUeqJvdHr25d03RXmDCZMss2V7butqNc2vGLWRnKwmKeotUQIIKAJfQNBobvW5n7vDQdx+RXCo4XSJDmQ8BduJGKvEZxyQhjR6Tvb7Tka2HxgxBnS5b7UZ7X4a3woDgRVN3bRsfsdue2gKFKcQCx8nJHQHBTxmNTCpTLIS01aAAAAAAAAAAAAAuOG5GVGqEK7llm8q9W0MPDi8/q7VV6BfnrKbDvblxuRLuN/cl/eYJ7HWkP/UkDwk98O7dK9ZI18GQQgdC1fECkeuttFBrDq+xSrpCF14at2c4DqRZYqmibpkH8DCQIXkgHmM8TzxlrPXdV4vUdlL9nqwKl2FLWWWgnJDhZYnyvGgw3gl8gCmGNu91BG9b5lkmdeqdI2Vyg7QT8ih3OZbwaGuaBCmMh44bHDleHuJO9UpWFJObLJAWKSkPV4mJBRzTRsxVVVU435XIwh/AjoF2cJ6mHbdmvQbVHX+k8uri67t2QdgTVtz02KubKUpSn0Y8PDw8PDIh/mBgUsEmhZAS4/tgKuI7vvc6oNnIE3VViAYWwohGl6s4Hia850D5mGMLdfrRi8NYYNmDMHoDPZvm9gsTEQ0dCDH7GO6QkC0gqe36JCcp0BUEI3hutt1SwBZuYqV+0OQkszyuOYi1NPcTdCeGWP0EBH4iaVfEs8IZmy7d/L1Qy4fh8eX5eXPMQWTxKMfTUZ5xHKjO1LFNxxwVNQ9+W4zZvSEUYxmI8uvYpAeYnqQhJok+h/SCdnzhBoR2RgcxLsHdu0SAAoKGipx/o/BAQ0GhDKlURGwAccccUD2WD98bWuZz+wJeeVQu5lgYTk8AmVO/GJAJLRwDnzuQbSDUyHqN683EQkBV/UK87k0/X6ATVUdz5VmFxZVrRKpUMdGjCYTjaENI9lglcBLEQmzpm9xLEbtoERanZ+ffNb+zQc6CKdQf7Cr2tlPWYS1wubjXyI1BWKyaOxnlQb99ePGYRTxhqKXpH7oen0EDVlomdQZj1SQWL6KwX7uiMC0093939D7abXPDuofRnhOnI46tp4UM3fIr8FOdKa97TM8zSUYI+P7AvkvmsoAbpT7CTpeaCOo/4sbChRuZ/uxJxpvSJ8+b/2nGEFjLDDVQjU30IF5tlMsbkwyhSRs3bT+MyZh4xwwy7DRZa6RPPOTjYsQHJ7y2lFQAM1g7s5vrjCrStuuhVe0M3QbSJWTJJmfyKl+ptS8MMh3+mQT3Z+2O0mtxmFH7KmqYWN7TF0jH8AvNsXtnFsFXwNOO1mZ+RuoNawnxb6neV2Lq4IX1MmsYDoINk5C7+wOCSxG5JQHI/nNNMZuxgyEOoGcMRphm70+8Y/cVy+6r5/EZ2rbF8iJ52s++NoEsygbDtMOQp1YwJS3Pid81pt3EnhvkQc+2lfNaVPtmUirT+0yBRIUkKDV7Gcg10HmYyKUPZtdN2mP/N/+Hm5Mj7XvXXwO2Tya84vGnfrkr6SUhbihE+GCbmDOjY5iM1gHqJ/tpxK2Ggo08Zoiwbnd1S0zz4A2hA7YrfmtyoVjktzmPZnIBf6NXWvzZueTj3HorlqUW2M1LuyKkunR1rYxglJk5+18L9ludaBEgpZb3KGx8Xj4/I6JDh0oKorf7O4jbQ88Boy/WOjNYRkmfu8lQ/mmGWW4mleZBpxlZuG/XrvVcMFCixoTBH02+xz3O3HyV0dBt7nXWe1oVVM5oJAlFtzh++u2lc99RuBhYJolO1+LmMFWlCyAcIS0634Cwls+G/TQeDrDZ+cyiETq8rT7I6frAT1KnsKUtr87GkSVr7Qfl2qH3+zniLtEehPC304nKwutKWaHdHiztA4Sn9oOMZlksIMuyckO8ospq+zOfPuQJFsLzlc/mfStOhrDH068MT4tyzcNUcruHbmYm9qO8+ok63+iYnhwP2gwf932GPugGv/7Gaex7UL71Gb5N8lXBAVNu0MIQB/2jeLB+d12YfiQpbTqmfyjsW11k4CtKtHZZXLR9KfTzfHPj+5tvd4CIQVYYclxcazRjtvbQMTlU3bEbRxnTI2Wgb9/Yuf3Wk0Wbbm0N0BU7Tyy6Jp8N+lKOGewLP1gnU4uICWBsumfYklCV4InNc2nV8/Ik69CH7dIHGxORbKP7Ax1E8Hqyqi2C0wVJqkFwJh0lKd27nqfBb08N50lhCiq1LOlQcxeXC1Jr1gA6PbYPczAI3SP0TpL64hJM6zXu1D4v8Az8RUuH7U00ifCaB8W3aFlcK3D/5adEVHGSFGmcjz5BsRZRuZsJ6sjHLkGvtrfVQ3YIi+DbqteHTR5iSkaidzsh7E9ZmFMUwoRSV3y+THERPkU/kjeyf5nRSbO6xcFW5CtFOhKXf7Ojud19GJW+GmcrKFo0CBUs/Mve//IEQDHroXQgM4UAhe6EFnmSTUOe9iFxwZG1kg+9Q6a7tc+t3c9cGoeIex1QeXbAscAa+n452l1B25H/gfQFxR7h7ij1PJBm6Ti4fS6ucC+DblSpFCIu+t3ACnD6k7lVx7ymf2p0+eOoxUXzKru/05w7DLOe7R0+IqWEk/TRL/EmKAHAYITe70AU9hYr7/tQGZJGkKAhr4AK8q36vOqftn1vCNyp0Tord9HuJmRg23IcrnhF8zTq7rbuAcFU0UJ/2vItInjNJ4lSo0jii4urfaGxzlNjtciHH2RQ7tfyGy+wrLN1X+42whAKteAk6+o6suvGVTPl5hqcbuF9qNU+EraV/AcTBmLbzbrzE6alnnH5VuCPZha4jgXkfkbT9P4WaKadh7w6HCxXBMDoeYzhDgWD+J4Wa7CSnrXXCbeakRSSgy28iZVJN5GPV/eu3naSw+L6kdcE4S7Kk6PPAr1zEuhQzATQ3sbXlg1yrtT+J+uQaFE6KzLbEe9+/blj/KCvzRcUDRPL0tW9ZdSNiQ5X6Q8N/XtIaA3fiTDl2i6kpn5Aex1SOuMIzimc2RtMDjA/f9+MFOPYnqDKCOOEignLnH7U7GxgbM5LN1fue9+wUyQntqwCqlYPV9DHS4M7ibjwT6LuElfQDBsqlMtbfLR4TSRcTlW1w73Qi3hzWLw3vAimw+peURKuTR26bcMAQ3KbLL52T0n4VZIokQW1QaGj6Zp12aR0qAGbPw2pgXwKEWRYES/2Ohh5z/QmNZnqhIJmQuvzxm4D+ZZj5GoI5+itMi4oiCjR8dYdD9oHfb83OyLYkN9IpLYVpymwD+kXl2uvLxo5s16fT27veB59DMbDvPjqyIjTznq70y0ymisc1VKfQnlPpV7uYRnuOncm7pL12xb+whvCKWIXhX3H1gW2Ml1ckFQ9sC4BRS/Cprx0+DQSw4F0oGGl7qAkr9SUSW4EpVe++B7113PB8eTu9gzZrLvF7geX9ex+CvXvRZz0RlO2HsnJNGRMQSVn8Mnojvd5K17+NlOKfaVmDS3dS6IX+P7asDA3qjWPej6gNTgu2ykf8izqKZPhcFBfsc1sXAz7GxNwiOzEGLFln69zhAK1n8eh0AJ5+hj616tYa2NX544geEyk3mfVWWM6UeBkqvkhr/KNyMasw0HW3tA86KKRwNdUISeRAac5BejrknDM3KxadwPG211YdbJVRcCnKisK0pvQU8ET32TDE99IRBMAYqFb7I1yh3mdx+0rhdD8zqwUcC2cfs5rMOqFDQQIxwzdMiqU32e5QZN1S2v4OFElcbwUy+VgENeqvorzqnl1qs+8HBmZ8Bikoqb+0+1VRldbw7DcRrWn3IU8XrlWudM+sDjUDo4le9cQh6+1F7Tql3VN2DNmLBFzyeQqqL5N/6tMTf+77UZQr+HykLa0R9gd/sRg/tArFgKY3Rls4xZVAjTf9/dF6Lsxb/cdq2f+b0Snki6qlX/Pvp1Jxl7GBYplBoJiubUgSrSCAeZewhLK/O+5+6TX3qUDjnCoD58JMlEtZCCJFNDlNxSE4ZKL18xEyAZUaA6pioBvPa4oi3JTpMxYlNo1/SpPgWwsHhKHZaMXeyNt7AsOMibYXaLa3jxIeZW+xW979zaxlOG3VfcljnIuuOl+iOPrk0aZRAFg4TF7onKDxPdyB3sPWLwfKfmEZmPhmlKMIYivSiceNL0xbXGnVgIXdiwqh4y7ZOssFGXS8tf6livPB8s9wlWATUfZToIqsJB3TULgICZRe8H3e0VpaE4tt3yXBKCXHXASlOKNpHKR7MoRsNJeFHcLxzFf3gTQVNKJFiqQoI5TS2S7R3w4BCldO0sP8ORcZMz7E7rpRaI6vEXDdocTUwMXI0LC8xmfp0y8bRm070MrW8tXEw5+EpQl8Z6lPfxk5PyxJ9bPaj3gbQeGV8qTgpMAhKyPnXTqiRt7qfxOme4gElX/7vgzM0kuGXjpC3Ph0PA8zdmLfoNZtTlV2ecb7rTUabUunYlSRhKrM3TuTlQjn2JZzanRVuciz/GQrIWzC+LORj33OEPx7WMOSf3FhxwU7g5AbGEw/vYrhPVSHG/zULSIx9GGqA/9iTzckymwY/0LIO8FBY0/gIEMRGoyHaRbROOl/JsPnkPHa39UadX16gVXT5QgEBy9eUIS4W7PUAFuVZGHUdH0JIwwZrzTcImi+Q89GGSybZ+Q24k1v4sT+QkWkxlLGhsgclWzf7oxBi+WsGHJST1XAkZesee9EjvOJrNOK/eAal2EDiYFXYvPOFfTA0ljYioPbsMAL4/bXj9X6w94QkyGHljiIHIQdZUJbDC0rv94/SKiDiikXmnocpj4ndQuYiEy23Y52i+45+/n+wSc9y+fz5q44OM2ku3xOaICLL2Ntk9XKB1+YjXuXB9cFCIc1vdkq08rmy6MdbthNE4DGfdJ9RSrwVjG46NozDfuXuLU0mhXzsGmKMYY6WK20L1dv1AheB71QwmEs8xP1CMLFIfZw9fUrzts4Hz9YLfOdtoLoJyDqqd1fEEz58ZYw27+J5sHhXIu2MjAGpeUkuKcjks9UKk+RYN98rP+wkqnhlIhlFF8vnYFur62BQgLAD/KlaiHTGL5LcVjvpykaqYk0LNKpHqcYVa1ZETndS10HtCv+YxYf6tZyHVFg6rmBEwTxHroof3AIvbYy5qY1EkKu6njCynRl63YDHodz6adItbjlHH3AcpAJ28F1u2DEvQXMWahYib3MuMNd9oMb8Hw3zmqE8OMRVTHSt3jOj+omv9wUSForZoJG46KIMbRqH9bD4DGju7Qtfr+33aS7S6O1Ze/es1Do3FJlhW/oLy+NkEbBpVAemAc/2z9peNoBGiQ594KbjObrDH8Ny6STNiRASeG//UfaD7SI8vb95e7mqYMVXFOUQZQs/59orWu3cH8xpG0XfoA8X/sIsrOq8URP1wzZuYouYLt8If+0GdzBGx31n11pAkcVmP09vJVOOMCVUL/F8nycq7W69KC1x8GJfh39Ifprq8li+y07Rvbw4ukSdd6bg//4NXRAg25pReYFQWktb3MIXakpN8TnDrTxIeCHNQ7EwldVCD+H+qqqqqqiFeQul76wjebsIbHx/23ZrXGiJNFZTXTGGcWISHuGegSAti5Zp0DHjT1bSnYfQIi9S4grZcoKjiFwN6VPc8CuDFMO1NE3yicSG6rRBD/9IWWGTqrRZbVWHDlmq3JN+9nRdKd/0k5bmsFOI2IDUhXNBcS4873pdfNe9utk3z9eIJxmOHzxpJbL5wt1r6AhsNT9WJOacr10Cz/mzgbJ7zC8xvnOKDYZfHSDAGLr2mz8+Ai1s/lGzL9VysAYPtLDkpijYQ2Z+oNoFLTw/8KJtLdgntRm38i8aGXJ9wkRcMMiXmNmiSuYrlBpIt6BvGUapF03fUZTdIExBkgOfisadUtpUoz+rjL6bnSBIgHNWweBD+B6YwJ9agu20tCwUzDS+CX9ZEmJeHhGe3HjaW72YXPBA9gaUrTdzhJ8sFrxCsy8cnn3mj8yHJiE59GgIH+oxHDa7VZN2LMv8ZszQI49EK1Z+mmmC/v9R9ZkZQAgcHTL2I/NHiKf2++VULevWGcvebICrKX4xIgIcCTMhsY/KgQXqUEQEfxiNWO0wDEHh/zDYj42p8a3cV9GfDi0z1VAuJkL++UU7uZ3+qWPsB7Qi+gLn4gW9do+UYd/kjTmlKsCVLAg0ZZgtdT3XkWUmEDuc5860blfHd5aBk5vf0Fg0feUUlHAjjQ9GR2H5KA4rwlDP6ykZA9zV/slA2sj4uP4NeZCsquvPyyUvbbiLfIuTBTESsW9iXUfSZnjp4qYuBwrsjGzkVtCls+jiVRYpelGkSBQE3UrguP8CE+o1lxIF+xS36frp9HBH5IOB66QKkueqzL0+R/CqNrmdxiV7R5ee+YwBlmhyRd1xxf6K+bzaxuY/m2gGkzBeSKqZj8lTObfBvKewq4YHFdj2/575YE7d5yuH/AK60F2efVlujY3Rx0aYtgB/BXf9SOxEAhjhI+ifaWZeJfkMxOEMnLkuzIAdQeFSj9QaBKtckk5qW8gEoS7YxK//7IgGLoCj04+Jjy9jpQH/5msPK9qJM3KdvjMmNcbEui2xOnGJ0uOiYPQ8iih3fecNYz76pFCL2+/oisFtB2DqO4Jl1qp2Zp6cQeJgNX2k7oZXhJOBQzHaMu1NPm4FDNhgHmBjEHyCGolPyHX/rentJSUOp9kQVtSQVCBOlkZZww+8DetHVAcI2s/FzGL/7dR9efbEhRung9a3MSE8ohI0nsrGHIew0R8hiIylfkfU3lzrzPK1de56CP6REFz+oV8KxSkgIs7QlNv4AZ0zqerSz3HsRJnulfrNM+EayWoISAgzO2LErULaD+cHakS+XMj/W1NpXias5ZV8sH+yMHiU9tJrq/FWJYHzs1HmevbIXHKlDT8grJ+ZOZ9Zhz4hx1jHkdeKhLhlgMkd/c7Kw0UC3OpD5XFYCil9n4myotuEEeONp2SIH1JqXCIO6Hwaj7uObZk2ys1BHxUWia4pmZhuInO2s7WEchbe1z/ZIY6jfluuMKdhxIW/w5BP3HDRx5vNkjTyVFSYXIhQ5Sf3JbSZ7pD2sorI9amx4AYo6uqkqKK2CJZBCPBTmGu+d3R+zv3TPOlmJStvMNxxYyJcYTG+qo99iZyZfSoUy2leUEbtio4UDbxHrRR1BBEjFgajyJ4Dlzgt4RJwcsVhPu1ZowvaRaLd44L6d9HpeTquPzz2krPYl34jydVSsG9O3yGNFlGhBaZ+chQ7+O52QU7p2RAqePLcB0/+SBtIa9DUWDCVGyyJ51yAYe7RYIUe8UKuEE13Tzol4lAJwTGDL/e6+9KSsjYQFEPzg5ce0AUQjehYcbmqCgIx6XzjoTp/jrF6L+lKJrEw/+2e8R0ptl0V9qoqqDgtin567E25IhSr7XNeVqIQdY6IkPpZDxpmZClim7d2kpIvA7tsR1Rp+bEA8+y0YfMfk77DG2efwyd7mQ71l3dPOpONpQ8TtjZTcY9FcE1nJ9MKV9+pCb5tuk6JcP4poXxY8HkwqvzqTeWPd9/OWdW0ztYY2DW+GKOi2XYh0Wp9U6wAQPKHs6lZZ9Vj/SsbIbE8dMmP7qfAaXSg9UvhKgSJp0SE8B55VELRka6UTqkeF1TlD4rrZq8J9/z2zjjGjgQK2aYgMBZbMK5XN/Damf2PSBx2/XdpdLFolIvyDCj4VHmmS7a2RCZD2bb1dRmZbKIuzdapW2PMnrFuXCXlhcQ1tUrk85yDMZhxPU/lRxZlxvKZKC3ZP4lZlSD8eCkRWEycx/U5ShJ4SU/SKS7wF6BuOPnvizNq0sUzj4r7j2rVbatw6+EnVcYc5pw+GNjSl4ySMoHVxg3x78ffMtxmK6INBX8iK8lPzd7Q70OuWFRyxU5ew0Eq72U5paP1d+SPff2OP9aIkC7Gk5gMazvsWPSh7g511hdpLSsBELDUd1mhulFbn7mQu/Jiza2v27pljFXwY1dy02ink0tWncnkgQMQhPPqFrw1yTJboKM6AuODg3S5yYgwP3Yf/g0ssQmOFDIiXDi2kiTe5VAe1+cXkFpx11jPiPt3UR7O46YoAp4jqISEuXjDsu7QQRCOKXvFHsJJZliLzyhidPw/rFvNrkzS5ZZpjYXWszvqKLzIwUIAU6Opl0PZebKZa4XuRd6Y6LQVcsyrnEOfLhyP0r+V8jJXuXQRkvEc3G96DCeuYpwTRvNp3qSY1Hc+yzWPSj7WailxAiLFpSh9tBQQrXAcBuDocW2Yz5oXGYuK5GpFB4wK5JBtm0Ytd5p4Cb11bALPRAc79Fk+35yvBp1YXi5izNWzQzrDa2nk7R2Ch5Xna4qkPmktDuAW4Fbt4FVVVVVVVObFJHX7IMkBn/5YMNfEEsbwmzwcfYqgjN5pJJzQwxyQNV6MUsacpnRKSezuzVZFC2OjUXaDtHb/oUnJ+CKooO7ZunCUkz+NgwwHlkHlql/GUiujPqwiLWFzl/6jJtwzdLYy9qfD7D07x9r9BuJSVUmehTC0f+0TDR8f76VluD8RbknGiCqwRCNXHbYHMckws0htoO2nLo/tWumzUcJEFvRdhxFkY163XT/nGyID4XGw52qUI+e8eZRFlI5V89XQissHcTPVxAARwI9AX0IQtUUnOKSfaX3HzZps+sPJ9Om/DniKRn8a1UMTOj0NyuUG3u38s4COITD2u51YK93++fPcHwEkkJgnvpDFMoYsx5bzPL+r8VYIjPTA7V54c6JjlNCYIHx3txxT8EnhaCX6uaRjxk29bCKKIp96TMi/0AtvUM0LdRDgwglZ0Vs+NesVdsgQGEUwx79a/3nhE3e4qjDD1+e7fpBzIfxU1AVfNCOUSeljmzp5RNu3w3bfQc88+aBuJ+xZcvMcKL6JbUtk6fnAGVfediR9X8/n/PlDTaytAm5zczzQskz2tjfyXUQmBzioGDQ+MDFP2b8ik1HyQ8KFrHpMduQFRU936VnKF5bBPnQJm/dwWu8h0bkaTh90YPsp6fomd4p7eVCD+5nqAHiQnTqhkRTBvyoIlz2Wv62CBOv7maY1kQxc/EV/////EaljR1ayMSYklgizNFnSbF7rAET6TL5eDxAuNxhdPeC/ElTAfvc4ONf8+uPa+w1i4C1B6t3zyM87TH1E00n/uyQ7cBoeGtfADbzU7vjRG2vDCDWq9wYOXwuffNzxilObbb3PDKkGy3iSQPw1VTXbRvkr5sEQuA95h0jlvE3ArmvlDN7/ydBZSTzeNOIjEGs4olYvD4d/UdmoG8LRZBDI6EI9L6/qdktTsMWgTBZFW5uVhBMQgUyggvwKbaW8kDoqxo3H+M63DGmO3v9z5VvNzVOuYsRIVHFpmRS5GdbtGf0TunF0xaBzuxSyVjVaD43lcKs52a9cRmNhb9syfLUbS3+VREvfUKe85o5PI5YAzF4e2csBI2VaCwERaj8aCWSQFmeRB9aDkYw89ERpeVu7DIWkfmIRNCxY8ipgE9o0RqAzfu+89BMnxPxyxokI+XzDgOdehq76HORMpwi9zJDQnEsaJYc8I0WzeuCc+lmVVb4VhN3p+qp8vtG8mrXFbMvu16p9dGVMN9Iq2ByxGE83OqmlY3D8PlZqZn7+LJcBi9dyniqcBVRfzIcnnn4fYMvA8UjXWkyW4pANWL8Q6VFP6ijjak9hm6ye+hs/no/kjAw6b9wjaDoakgYBJ8XpakhfwaBfFdA9LBQ6O6SPET4syp5HtWdh0vqmCj9eYYZ67RDNUAWyRC/GzVEzz9XHYhxaWIWSI1euqFXJ7vL/JhC1Esb38cdH+3CFXrQ3V1T1eTB4CBjxvHEcAyfDrD4YsBJkjTNt8QsjAc3uTHsaAxfZ3swnnSH5F9Yc9jSruyFOfvX+RdWX245CDd5fvdf3ESE7lVXNj246gav+yjOLqA9aHLV3JEaz0DVtsEQGFonjpURjpC23uf2UQESc82jCDVWpzpSYUOVC8hUUSF66fYp7QcyspHt/PwWFrX74MVbl4+LldVP1WJrofefhAkrog+r5qIiY2TKKqQXvzJhPjP2EF+R8PZNLZEfM+mAOMyyJ5OuZKfYC+aUPPHAmEuiUDGjg2+D+2BGf959BhzLcc651vgWlWoXpDTRxy8UM5VeFw/Crlsduwn6vVdIZWrJNi6JWlhoykEnQByS+kYNeZqlGv9UIaEWSalaZ3Goaj9WleQuNhSyjTmQvPwHTGmCnL6gDmPGcSblcp2yGExRamgPj5rWJQL6xXs11llDslT+1dcZe09BMGS+Zm+1gxA62XlEwJzd7ccocyNu9q7WgKFJo0YdMjuIi9zSg8CygGOQG08HfbHEWX9m8awl5WN+kQqw+OFDGgmOgUP3ARmgp9fbOhBv9AvJaM7Us5QuUQ2+VVEL8fOeD3I0oTajxc9Ap9kLlPdg67qT3vVa0quDZ2YrYemLE2sxvwmoBnuXV3Ckvov0je6biGpPXUdqk/19bYLy2yRON90ZQQ/DPz5Jj1Iw/sODdrGeJCi+Kz28voJi+gacLbXdU1Uc6DYa62Zakc3f4Q9SZTK/H0mEz3+uTXzCqlwfWdTASrDQJ8A0Hr0n1mvVO/9C6tsffN0eJe7GI6WWaHBXaac8Sy/OKHYGAiHHqFYxRf5LulzSN5loHjLxbK/gzzYexaP+NoIgRGe8wMk3bziF1LMovnvFlLRHb4Prtj4rNefycDQKe0LceHNPYnEHw90XtXBBllp3h2vQOsR81ok2iB57kEYkFEc7o+9iaVZhMBr2OzJSuhRQcC9aTJmAsS8lC6wUeoCtR7Cf5G81DRRcqIMrv9ejb1bwyaL4uew8H0bHmQfbQmIM7dHt+bqhHuAGLYA5osqdtzY08olYNgBdTxrwmYoLwQfU3zrzxCvLYicKICFUdrU13VSRWIIzxMz4xeIYYOePJ1nGyJUz9Kf9PaG6/Rb3OgZvj0wD+p25gXICBifejHegP/K8a4zT+DnjxNxyNMJFY1T+5tvvuOen6vFCBNNvMg9wwhgzqzfkIN5HFTLcPL0IEDX1o1hXvDv7pwOG3psglz4EkslznmZMKErLOU33bJNR0jtKKagJNCGZc2TnDKsPhRUrJTNwgAAnXFriNflYa9LHs8ZKTC9FJ9ywXyv0wBa4/u/LSEkwGWOfSZAo02IQr/Y5kEW+KaKYsTvAHzno6lXufIR2Hnqw6OcqpfYgkUKzqdRK5yEREUAhnwlTiPi1Zok1MCHTjSfPentUtTsuzIgoEO4z9kAwqneyir1sgFhIdRpeaBX7Cr9LPYcppe/zLhFT0NDCZHliD5PYBkqIk2vDRPAtOgHrRFJbU2GBgFdBzUlCAva1+++vtMfBVcm1bgSMoMsKZcci/NTLG5DrTkeik1aKmRK1dC/2Yf+0f9j4At6KRih3l/NBwXOu6bL0o4tDQ+CWUYcm3kfe7SeAVhyGHKif6LFMLXeA0n6RWHHdfZybyrpebn5uZ0hjTphtPKorn1G+htiQ7cRRuAq7cl+7TQqshXf3h54WSCjz9J5nvQ9ZmMwd1jUcdByEHm2dD3k2MiNxGc2mkmo47mAK5d9aUWpuShqg+ID88iadNeVGBvHmD8V1c04p6n6fAYOUXY2CLGJac9Dx5IkJPR3sGcT1K3AjVTo2rr4zBdITdo/Ojqjvqab5sf6UCnlWo7PIbPBYe7ZV+vdJEIEHmm5ou4oMUDBDCEa/EISrN1Xsj+BdUbExxYhGnPCLk6TFqxei8NPCfLp92tX9Ilf+BJIaJlnUgHJa1yXd7SBH0OvljaIxpS5ESVe5xv7miznvbYVq1LaupIFk+yIiWgBrR9zayMeIeMr1rQ41+697y9zy4hwPX8WcBy3ylTxkfEJNwtQFVTaLAo8ZDbDGW6Sx5+aTEouMFM4ZBGmuH2tgK/Xro0xehzfPF7ym1p2S/WXru+f2FJGnEm3NSfv+QMddILLln1zk8O35JQmq444MdrfPoLqQsaEottpBnlDAZCZPnYDdPRBIGnVFfTRrC9arZZDJIIOvdOhUEO7VFoJmzApk1D7r7XVPcUqMAAR7AS+NBrbKA+M/vxjMiTpwvUKiNZasL2v6pZzjbwi2f/6oY3Rv3AvazrMiEWikSRKV7RGJPd7HBTNmDhiY8Bznv2l+Pt6+tZBT2Sv5QgSkZt0CeDkco5GWrdIRFhuBqAynZq4WVo+z7z3JSVTE47P00QXz1TUsGb3F6AADcNBcubNLusBBMTmGdH7qwPOsde+fqKaXDU/l8+IiS2lmlfUoaqIf71Xn4ps8bIuCmGsVTgJNEhxeoeMWioAcRilYKVONcg6dQ/aT7LoV///8d1sxecQCDzs9C1x6EQdgg0r/6KBK6ta1GjvJ+obsHEWw0bUrM4NZnVcdwJh0B+xze49XUHuKCFKhYxd5VJnD3zMtfcSpAane8y/HGqiFKDDr3sSbRgDnndiQrMGkHbHRjNM8HOJytB8LLGVas9SRIKdiFto24x2/uGgAZOJ1qXw8PDw8y0Phb8X32SwwN9bR+awbGmPk3K/yyAfqnSo0TTrSotiKvxlVVnUM9aBz3PGeX10b/fUHKapGvl2+Iy8Y9k+nbyfOq9p42P1PnVDzPYHI6Ah9IFAIesfqL7vE7YyrfLHljlqsGoX9FvuOzRlosFdcjYyfdr7Jp3zO0KH4I3yv7OXrztnufNGhHb/89F9fqgQO+bcdM5nS8Z/OxmbBZzZFMh+t5G71K88g3QRLPNgl9IzASHJjcaBMqW6hHAZ2TVbsyHCKk5YcVYVWiC7znjm1hcWYFA0uNwwyA4xryMECjf9yb8w4yREgE5AfolgD9MsNSwakhKlgwRiF0OTnpqIBwYt1M9XjsdLSEJMJp7kbPv5o0PS8PKUSXZtPGsOgqQH2JKGYwq+lj6K9XCRTymQZjjdm6xFpTJxaOfCvtVQcLJyPJC96CV8DwuIk0J1iqcpKd2D8xbOFcYuKEuZD3JFEbad4NEf9Yh7xhiR0I8Vaafvg81QK8sU9BiedLtb6q9whUYWMRXC6d9Tv+qsSoK+sAF2F3meHxBXmLJ26N9CLfs4/phtMzjaF12uOOtQRJJrHunyCbMRvp45AfKStx8vQH0tCVeM3sN5RGf8xJaa6IrludzZQRtEur73k79MB/iVHytzN5sbQFTyZbU45XdX/KBLCjbzAAyGMT86bKLywKd3Wm0xYEsb73EggvNvDsnHI8gAhNk/kXoyRTkQkB2IbuTi5viDuCRbFxTDgoeirRJal0uN/w3AqyoF4kuWZQxI5ZwOXYj9xeiozWTiBjMm0qfTgU5u3ajDrplfyLOPKMf6lDV/Mmix6rkyBssoqBwJ17kXQlJDUEcwWgOsaIGl63reiYVVGWSGBPGwAfRXOaEbH/JlMfv2bVyOIhH64J+lRt1qHmD44H3Q2IRQUQRHUdtvPy0fBBdnvakNcVfh4usYBYOGy8uG6BsdhaVVGTKZm+D9/oRMksmifwJ1F9pcQmR55xAv4FGLWMe8rI01iVqrmglEOfsOgeaOaD651DH3GIJFPONcwZJhMn26PWSe/CysgUzWOWmaFI//atqpOkvtqKT3qxkRBV61/DdjyJlr2SzYqpbY1Fbab1Ns8s7/okRwoYILfmKUVRbpAXS1YR1AuYOtCK1iXU9m5XueOUcinXPxo0FoiFpQiAmasLqXJoeOXG9IWkx/8Swal+U7iEqoB8YRNq/2Yytwk9hwc3c8fGFKBgY6Q0Pq/ZuijCfUDLsr/bjU4J264vpxARiZQl+nbsDdatq0TNAFkzh1aUtU1PvmerG90RyQvukThvpycHoGAeKlmu+HWNzJH17Jf/HEvOfCslLyt9S/2wcrVo4mZvc+0k73em8ihgEo12fUns9y1qeXKAA8ysDD6mAg9CKmrXBR+MF6Ldbw76bFHg8qqWC4dWm1pmlMbugZaEftjmsPQOg50+HKFJm1UNWiORMkxno/g6AR8RiNSX+2SUhOYWC2SvcTqPhbD5gGaIFERUBu4Rl42zVbynrXVJGWsfk1+z73yikV/nCuI5HDAZL8q+lEO5DRQLeNViy9AU1Sig5IZj5vFLA5v9nL8rsexB/3rGp+KQaF5vrZNhja3IzveGyQcgholP2ByoJWUL1Zxpfcfsp9l5uazzUMWeAbJNs+s3Fk2oJXDb4t6Popjo8s+zXNc1MebFQtXr/S9fG0iMyPWTCMahS7JvLb1tqWPn9Oo09fIpXykwnKV+QnUfRIYHji1ouqP4qWrYemJJJLV9mgVSuKm/igAKCXq0I0u/+nydtukXIfoiTyyJjCxtfKkEjxsMHtGdY+Ety5nyvJhGx7gnmmxW+e6Kpd6rPKCnq38S+lCD31k85ME73lTxFII0jTsqu2w37Vp5Pn7WGWgGivC5JcrTyyr5uE0URkbBDa18NOH2na/qedjuZyvL8PEoC/rn1z9vj2DXQJTrSB7QvtCr17dKRv5tKMhWxI2oDK9znSqwMNa/fjD6d4AAOlK4jHf/7sGlu1Q3cEe0aDrttZCQUR0T9xhk0HoGvwsc0wSabYOoFNK5MRRrsB5/4n6Llqisf786GxPgGJ+5cW1AoiuuQcWaHWii+Qp33zrHyQX2ZmG/BEYRIBRUvT+aJ9LjXaStMWa5OBPhUJu21E0oaWBJaQYJBlcfEu47eEZs84/Fc+Lg3e9a6WuIdpWVPl+jZXWZDmY/AabO9Nltmuu8ovC8zPiL1IvJ/6NFdARW5T2HuSTFFQI3ZrRuWK99+/NxIQxUh+U/xkWNGO4n7bqVCuWPoPKdQMBtlBNg=;" parent="iNa71B6rXoqSezd_o_Xe-66" vertex="1">
          <mxGeometry x="220.25233183856506" y="10.833333333333371" width="63.49166666666667" height="33.333333333333336" as="geometry" />
        </mxCell>
        <mxCell id="iNa71B6rXoqSezd_o_Xe-59" value="" style="shape=image;verticalLabelPosition=bottom;labelBackgroundColor=default;verticalAlign=top;aspect=fixed;imageAspect=0;image=https://miro.medium.com/v2/resize:fit:372/1*JT5rB_fT7dLGKge3r7sfoQ.png;" parent="iNa71B6rXoqSezd_o_Xe-66" vertex="1">
          <mxGeometry x="309.9962331838565" y="7.4983333333334485" width="35.833333333333336" height="37.175000000000004" as="geometry" />
        </mxCell>
        <mxCell id="iNa71B6rXoqSezd_o_Xe-60" value="" style="shape=image;verticalLabelPosition=bottom;labelBackgroundColor=default;verticalAlign=top;aspect=fixed;imageAspect=0;image=https://upload.wikimedia.org/wikipedia/commons/b/ba/Pytest_logo.svg;" parent="iNa71B6rXoqSezd_o_Xe-66" vertex="1">
          <mxGeometry x="384.3321524663678" y="5.416666666666629" width="41.66666666666667" height="41.66666666666667" as="geometry" />
        </mxCell>
        <mxCell id="iNa71B6rXoqSezd_o_Xe-61" value="" style="shape=image;verticalLabelPosition=bottom;labelBackgroundColor=default;verticalAlign=top;aspect=fixed;imageAspect=0;image=https://cdn.worldvectorlogo.com/logos/minio-1.svg;" parent="iNa71B6rXoqSezd_o_Xe-66" vertex="1">
          <mxGeometry x="530.0020627802691" y="4.7966666666665105" width="20" height="40.4" as="geometry" />
        </mxCell>
        <mxCell id="iNa71B6rXoqSezd_o_Xe-65" value="" style="shape=image;verticalLabelPosition=bottom;labelBackgroundColor=default;verticalAlign=top;aspect=fixed;imageAspect=0;image=https://archive.org/download/github.com-streamlit-streamlit_-_2020-01-25_03-34-41/cover.jpg;" parent="iNa71B6rXoqSezd_o_Xe-66" vertex="1">
          <mxGeometry x="450" width="50" height="50" as="geometry" />
        </mxCell>
        <mxCell id="ohWQshDICcBfZKWhLThc-1" value="" style="shape=image;verticalLabelPosition=bottom;labelBackgroundColor=default;verticalAlign=top;aspect=fixed;imageAspect=0;image=data:image/avif,AAAAIGZ0eXBhdmlmAAAAAGF2aWZtaWYxbWlhZk1BMUIAAAGNbWV0YQAAAAAAAAAoaGRscgAAAAAAAAAAcGljdAAAAAAAAAAAAAAAAGxpYmF2aWYAAAAADnBpdG0AAAAAAAEAAAAsaWxvYwAAAABEAAACAAEAAAABAAAPRAAAKLYAAgAAAAEAAAG1AAANjwAAAEJpaW5mAAAAAAACAAAAGmluZmUCAAAAAAEAAGF2MDFDb2xvcgAAAAAaaW5mZQIAAAAAAgAAYXYwMUFscGhhAAAAABppcmVmAAAAAAAAAA5hdXhsAAIAAQABAAAAw2lwcnAAAACdaXBjbwAAABRpc3BlAAAAAAAABkAAAANIAAAAEHBpeGkAAAAAAwgICAAAAAxhdjFDgQgMAAAAABNjb2xybmNseAABAA0ABoAAAAAOcGl4aQAAAAABCAAAAAxhdjFDgQgcAAAAADhhdXhDAAAAAHVybjptcGVnOm1wZWdCOmNpY3A6c3lzdGVtczphdXhpbGlhcnk6YWxwaGEAAAAAHmlwbWEAAAAAAAAAAgABBAECgwQAAgQBBYYHAAA2TW1kYXQSAAoHGipx/o/CoDKBGxGwBxxQ9li8xnga/OTyLsKpIuMGQPIwG43iDBFKXkdHzKyyKGzi3Wn5sSa/nqtrfh//TTpCxJZ1H9LPo9/MPff+BKYftOu1Hftqi45KRplVZUioZTgVpZ7g0XwP1X5qaebHdD8V0Usf5irwhMSI0QyB2PcespenmOYbowuuKreYe6Oi7YEefiUBDz0X3AcZnoLXd/kL0WPGtkq+/uUf1cZizioUYxCvIU5XFUp6pRd4rpvILQrsaR+XdW5d/+HzvFPjoGtEFHWZmiasKwV3ml89UubdnpDuzf/K01iUUK9QewdrVcfc4yzYoae02jKEL23e9COsUgUWXj6DXV/Pz6ZRaKy1Qv6kcwtXgL9AuRnmTMZwjCTEt2uQDNYou9NwCCYFtxOxOaP0/Q0Tm54yfAFY4vO4wdrmPYfsmR3ZqYBA7EZYJ2IoSor1d7XPQ2qh8pYQdCb1uBrv6WNdrPO7eHKLG+asaG8O0cHDjgzakIq/feA+G0EnQJ6t/jsNgju7eXDAFyu5K20Qf/9XmGEpbWRsRuGvMEAx7ziqICHnma2ClyKzurEsZAUgb5MCc5F0Yfp/q/6qlf9DEd2T/18LMTUcN+cwp5BtrNCWGZBSjPjgI1BpU+MQfhdyCAixnwci8CbL6rhTnnH5Ji3Y1SSoBgHF/3e3sNTSVnGoFxI15oFxnj9V8CSH8A4eIrTG6HIbczHxheRYCQlbebUoaK7crKxDWoguwjxMjhoekif7z1F7XSef+h+PyAxuDqk10ybUVuiscfJw9vO/CCRyEkvVGjEChZptkbhQZtjgetBO5lcpkLZ7X7RlF+d7EdK0VISXzxUuAxjmNym1yWt7O0GL9usKZHsGnp0VMx0mGDki4RKvMwA1gyE3ITLk/xLA23m4y0PLHIcqCqYozY/hSvkrvEjxX6BOCVDtcUbUx1XbfvTOAVDy4428ncgh0jhkHq9OG/4Pg+CWQJ5NUUcabO3qYMk3WZuIjnEdkmGIySG/CELL7En7TeQTDpN0km9mPe9NQEZbbekHL3Sw1SNtDN16vKRK/jdwmDJ1bNy7Ubl71XkwuOs0K23RnwoC2HWgw8oUNYgM0awBSY8DdPG5s8A4Y59RFZvf8JB68CXDpTitTMLf4D/YhNKzgv24Fx/LDCK/axEvQ9FeY/Dkz34JmIFD5DuaPszbV5XcdoRL+gt+JDNCAxkQFv9gDiS7+arMeDNkmWhe9dfeya4rdXURcP5AX5fAohzki/oOi9JlOQSELG4MocvLqiixlNK7N21R0c4K0LWTrTWWx23X1EZOHN1zQRWQo6YtCSdRWXqFc71l+Wl29DhUtPk2TUc8jimuTj5B78lv/4xQYVamN42mLpUk5X6GsqGzsKy6bK+1+sbbX8She7NdHaGGEsBrYpvtDHh1tJi/azhlYCHMRkCrFKJ3zV5XJEYHaIbZ4avuMNikrQ85EkmhZac2njV0N2UC6rCyH1hgK3nhgus1AGy711VUuZS8KE+EevobcDi/HdD+PSCIQBjsGlLb4bbV5C34zZGDfntxENi9e6rX15H1tx+6sfBhPoxXOYT8NS+v6OsfDATxOO3HHMglympGgiqh+kZc9/txJvxW5rSaUhRuJOBsqSHAjszbayL3I09xkfl8qpcGnkfdTq7fbrxNhkq0AO4hTeUe1kpr3QWdJ8mME5KrdrQzStfj9beKl0gyYiNIcZWeB9wNllTuhpU8D/5Furd+Q64xBAAYTQd4LePKETMqYQy6b8NoHHknITVDGOlLFo8V1pSsx40/Hb9cWefNyBIr5kHfve9M9zE63t71/h8uAdKRFhYQNSSj70x2MtAidYFPpXd5lLIF08e8VUM48CKWxA8X9toxJEF8uj9gMhNnSIg+uBADQI90LLiEMxTaqRIcqn86KAmS7vqNkKiO80YoJG046zX1JChuRmCwDAHdx12AQGy+U2XdEKuYFq+EDlf43ma2YYuQHupQRWtiHaokOBMoMtsdmfXBmfl7wxqNyAROKxgL+MDrTZ7/GTNCp2DwYM2OvbHUUp62V3NMg7IWDvsImq3WjksosJzGLJC4EwzDWOtT0/GG6mR9ljeN1q0TP+fqMVyCz0tvVk8BhxkiqF9xyA8t/3al//2oupm/tqg/+R+Osq2u733wZMf+SZTxbdzw6EQN6MlvVJ8+j44v0a272JLnKMu2EcPczmi2UhbcT6GUgP/ZZqnpE0qtkDY7+Ayz/jbBx7IUqdVcUbOVaiko+p8oucRFsah/SAlPJf7M+QlFpurQ/N+r0/8UkKHFlNZEb465KhffaITZleGZAZpiH/30hss5kKQ9mRXDGPcWWJ2We9w6rT8PjvPjWw4sjVXkE0/yV+EFgaPIv66jyb0RuchSTQXD9ms31hb0108kCS9FkxRSGXewjWFiwv9BXD0vgLSHMCN85DgUqeIUVuyWA+7FuJbQ+VCShPL+5uLdlSuD25Y6AFnnAJ1MzZ3rS469IMxg19COcCp4rzt3NrS6FQ+YWk4QLiR/njLNyK8AsKvkEZ/aw2av2WtQXrPCs93///////5K0/8l1/iDlcb3KFACC7lrKrp02xLNP3gVWcClYysN6i6uThkHXms3/RQQYaZpVK5TtaY33rEe7JR0w7c6fmhmBgYRpidUopn18wHbQ6XZ6A3/A7IvsZjnPc+52TgvB90stRCQ2hb0jlnKx1fEoeJibLTD+EzEh2B96RP5blI4Igj7HgXZjpBauDARNoBh/BPA2g+lyD0QnhrYdDbsQ+0nDxUW2u2YFivXLzCq2mRaaEcoGGzQZRFsyCu5L7oPTYMyt4wZtlMQO0NojIJzXbB2E00Y/3ElBX5k4A9g8h3+mohZFNBdy+t+kFNjM6c3ZxItiBzvK/c3fr9FV8bWFbMwNRNobxgCAAsABVgAgBACAEAIAQAKsABVVVP8PMF3Hx0W3hxybeSWn+SksLJWCBcXhCc8y2R+N4+BdmIwNM2SK3CpvhtkTeCneKUOcmyhGDhO/JxRZnLM8xl9VaMMZuj2DM34IqZbbBK0EhziH8H7QoT3+E7qqh7PFozWcCbi7u1BayD7btncT5BvkIZWsr9gB7CgMCW8F4ACwBcasjgCS2luECBU45OPgbALPtsvek4E+xfbqDAdNtsOixuFSzS50tspYDRcGIZCb4vL1KqUwxf7s3xgurVmsgtt5zPAAXSOl2H13RRlex2pX8SOIrhUTyZFiQih2rCzBbX62K5jCKykM/CgKJdgm1hUKJNzAaNcBd7aMOgkgf3hLQL46ACYcSAiu4Hd/Gar4kDIr07EgUD7wdo+ubhCqEJish68YuSRSjxv96FnnBZWcR0xjjmIkqmgs73e+bDwJ6qQ1frHilxP0FTM1g5kUMo62xkDacx+hZBA80Qvx7dhfLuf68N8JKk5xi0WFSFNlW4Tg0PzjK/Q6Jcxhovy2sU+ZFZZbPj3bR+H6WhtlBBeWgMACXVDvTPZndafFbuXFOmQnFAqDLwVIGdUGpn2ppT/tKbXWatYWD7R8VEje9NOKedqIPqGImcFLW4dgBxYRsWQi+NfiD5ABow5ZhZAqqqpXE/gzVs7d7w47X5Rr3QV0NfkgU7Niyj85S2NONG2JMpqE+nIsi9C3M5wweJQSPYtoTWIC3AxvjIgfy9Ce4h3CeiTGxY2WiVFxGe8y5aEi6li7AGBrYFZy2RHHrPVPZ0xzhEFr+WrfV+RbJUTJJ01M9/4yvrpOSKDxBhrNU54sZ4VmNShIXqTENhfjrQQfe4yCTNED5pYBD7Ve9be946URlqyErzIOuTxuB4l9KugE41KW7fSyzFa3gh6T/7Gzq4g+p0fQAP0cwuhNECxXuTUeqJvdHr25d03RXmDCZMss2V7butqNc2vGLWRnKwmKeotUQIIKAJfQNBobvW5n7vDQdx+RXCo4XSJDmQ8BduJGKvEZxyQhjR6Tvb7Tka2HxgxBnS5b7UZ7X4a3woDgRVN3bRsfsdue2gKFKcQCx8nJHQHBTxmNTCpTLIS01aAAAAAAAAAAAAAuOG5GVGqEK7llm8q9W0MPDi8/q7VV6BfnrKbDvblxuRLuN/cl/eYJ7HWkP/UkDwk98O7dK9ZI18GQQgdC1fECkeuttFBrDq+xSrpCF14at2c4DqRZYqmibpkH8DCQIXkgHmM8TzxlrPXdV4vUdlL9nqwKl2FLWWWgnJDhZYnyvGgw3gl8gCmGNu91BG9b5lkmdeqdI2Vyg7QT8ih3OZbwaGuaBCmMh44bHDleHuJO9UpWFJObLJAWKSkPV4mJBRzTRsxVVVU435XIwh/AjoF2cJ6mHbdmvQbVHX+k8uri67t2QdgTVtz02KubKUpSn0Y8PDw8PDIh/mBgUsEmhZAS4/tgKuI7vvc6oNnIE3VViAYWwohGl6s4Hia850D5mGMLdfrRi8NYYNmDMHoDPZvm9gsTEQ0dCDH7GO6QkC0gqe36JCcp0BUEI3hutt1SwBZuYqV+0OQkszyuOYi1NPcTdCeGWP0EBH4iaVfEs8IZmy7d/L1Qy4fh8eX5eXPMQWTxKMfTUZ5xHKjO1LFNxxwVNQ9+W4zZvSEUYxmI8uvYpAeYnqQhJok+h/SCdnzhBoR2RgcxLsHdu0SAAoKGipx/o/BAQ0GhDKlURGwAccccUD2WD98bWuZz+wJeeVQu5lgYTk8AmVO/GJAJLRwDnzuQbSDUyHqN683EQkBV/UK87k0/X6ATVUdz5VmFxZVrRKpUMdGjCYTjaENI9lglcBLEQmzpm9xLEbtoERanZ+ffNb+zQc6CKdQf7Cr2tlPWYS1wubjXyI1BWKyaOxnlQb99ePGYRTxhqKXpH7oen0EDVlomdQZj1SQWL6KwX7uiMC0093939D7abXPDuofRnhOnI46tp4UM3fIr8FOdKa97TM8zSUYI+P7AvkvmsoAbpT7CTpeaCOo/4sbChRuZ/uxJxpvSJ8+b/2nGEFjLDDVQjU30IF5tlMsbkwyhSRs3bT+MyZh4xwwy7DRZa6RPPOTjYsQHJ7y2lFQAM1g7s5vrjCrStuuhVe0M3QbSJWTJJmfyKl+ptS8MMh3+mQT3Z+2O0mtxmFH7KmqYWN7TF0jH8AvNsXtnFsFXwNOO1mZ+RuoNawnxb6neV2Lq4IX1MmsYDoINk5C7+wOCSxG5JQHI/nNNMZuxgyEOoGcMRphm70+8Y/cVy+6r5/EZ2rbF8iJ52s++NoEsygbDtMOQp1YwJS3Pid81pt3EnhvkQc+2lfNaVPtmUirT+0yBRIUkKDV7Gcg10HmYyKUPZtdN2mP/N/+Hm5Mj7XvXXwO2Tya84vGnfrkr6SUhbihE+GCbmDOjY5iM1gHqJ/tpxK2Ggo08Zoiwbnd1S0zz4A2hA7YrfmtyoVjktzmPZnIBf6NXWvzZueTj3HorlqUW2M1LuyKkunR1rYxglJk5+18L9ludaBEgpZb3KGx8Xj4/I6JDh0oKorf7O4jbQ88Boy/WOjNYRkmfu8lQ/mmGWW4mleZBpxlZuG/XrvVcMFCixoTBH02+xz3O3HyV0dBt7nXWe1oVVM5oJAlFtzh++u2lc99RuBhYJolO1+LmMFWlCyAcIS0634Cwls+G/TQeDrDZ+cyiETq8rT7I6frAT1KnsKUtr87GkSVr7Qfl2qH3+zniLtEehPC304nKwutKWaHdHiztA4Sn9oOMZlksIMuyckO8ospq+zOfPuQJFsLzlc/mfStOhrDH068MT4tyzcNUcruHbmYm9qO8+ok63+iYnhwP2gwf932GPugGv/7Gaex7UL71Gb5N8lXBAVNu0MIQB/2jeLB+d12YfiQpbTqmfyjsW11k4CtKtHZZXLR9KfTzfHPj+5tvd4CIQVYYclxcazRjtvbQMTlU3bEbRxnTI2Wgb9/Yuf3Wk0Wbbm0N0BU7Tyy6Jp8N+lKOGewLP1gnU4uICWBsumfYklCV4InNc2nV8/Ik69CH7dIHGxORbKP7Ax1E8Hqyqi2C0wVJqkFwJh0lKd27nqfBb08N50lhCiq1LOlQcxeXC1Jr1gA6PbYPczAI3SP0TpL64hJM6zXu1D4v8Az8RUuH7U00ifCaB8W3aFlcK3D/5adEVHGSFGmcjz5BsRZRuZsJ6sjHLkGvtrfVQ3YIi+DbqteHTR5iSkaidzsh7E9ZmFMUwoRSV3y+THERPkU/kjeyf5nRSbO6xcFW5CtFOhKXf7Ojud19GJW+GmcrKFo0CBUs/Mve//IEQDHroXQgM4UAhe6EFnmSTUOe9iFxwZG1kg+9Q6a7tc+t3c9cGoeIex1QeXbAscAa+n452l1B25H/gfQFxR7h7ij1PJBm6Ti4fS6ucC+DblSpFCIu+t3ACnD6k7lVx7ymf2p0+eOoxUXzKru/05w7DLOe7R0+IqWEk/TRL/EmKAHAYITe70AU9hYr7/tQGZJGkKAhr4AK8q36vOqftn1vCNyp0Tord9HuJmRg23IcrnhF8zTq7rbuAcFU0UJ/2vItInjNJ4lSo0jii4urfaGxzlNjtciHH2RQ7tfyGy+wrLN1X+42whAKteAk6+o6suvGVTPl5hqcbuF9qNU+EraV/AcTBmLbzbrzE6alnnH5VuCPZha4jgXkfkbT9P4WaKadh7w6HCxXBMDoeYzhDgWD+J4Wa7CSnrXXCbeakRSSgy28iZVJN5GPV/eu3naSw+L6kdcE4S7Kk6PPAr1zEuhQzATQ3sbXlg1yrtT+J+uQaFE6KzLbEe9+/blj/KCvzRcUDRPL0tW9ZdSNiQ5X6Q8N/XtIaA3fiTDl2i6kpn5Aex1SOuMIzimc2RtMDjA/f9+MFOPYnqDKCOOEignLnH7U7GxgbM5LN1fue9+wUyQntqwCqlYPV9DHS4M7ibjwT6LuElfQDBsqlMtbfLR4TSRcTlW1w73Qi3hzWLw3vAimw+peURKuTR26bcMAQ3KbLL52T0n4VZIokQW1QaGj6Zp12aR0qAGbPw2pgXwKEWRYES/2Ohh5z/QmNZnqhIJmQuvzxm4D+ZZj5GoI5+itMi4oiCjR8dYdD9oHfb83OyLYkN9IpLYVpymwD+kXl2uvLxo5s16fT27veB59DMbDvPjqyIjTznq70y0ymisc1VKfQnlPpV7uYRnuOncm7pL12xb+whvCKWIXhX3H1gW2Ml1ckFQ9sC4BRS/Cprx0+DQSw4F0oGGl7qAkr9SUSW4EpVe++B7113PB8eTu9gzZrLvF7geX9ex+CvXvRZz0RlO2HsnJNGRMQSVn8Mnojvd5K17+NlOKfaVmDS3dS6IX+P7asDA3qjWPej6gNTgu2ykf8izqKZPhcFBfsc1sXAz7GxNwiOzEGLFln69zhAK1n8eh0AJ5+hj616tYa2NX544geEyk3mfVWWM6UeBkqvkhr/KNyMasw0HW3tA86KKRwNdUISeRAac5BejrknDM3KxadwPG211YdbJVRcCnKisK0pvQU8ET32TDE99IRBMAYqFb7I1yh3mdx+0rhdD8zqwUcC2cfs5rMOqFDQQIxwzdMiqU32e5QZN1S2v4OFElcbwUy+VgENeqvorzqnl1qs+8HBmZ8Bikoqb+0+1VRldbw7DcRrWn3IU8XrlWudM+sDjUDo4le9cQh6+1F7Tql3VN2DNmLBFzyeQqqL5N/6tMTf+77UZQr+HykLa0R9gd/sRg/tArFgKY3Rls4xZVAjTf9/dF6Lsxb/cdq2f+b0Snki6qlX/Pvp1Jxl7GBYplBoJiubUgSrSCAeZewhLK/O+5+6TX3qUDjnCoD58JMlEtZCCJFNDlNxSE4ZKL18xEyAZUaA6pioBvPa4oi3JTpMxYlNo1/SpPgWwsHhKHZaMXeyNt7AsOMibYXaLa3jxIeZW+xW979zaxlOG3VfcljnIuuOl+iOPrk0aZRAFg4TF7onKDxPdyB3sPWLwfKfmEZmPhmlKMIYivSiceNL0xbXGnVgIXdiwqh4y7ZOssFGXS8tf6livPB8s9wlWATUfZToIqsJB3TULgICZRe8H3e0VpaE4tt3yXBKCXHXASlOKNpHKR7MoRsNJeFHcLxzFf3gTQVNKJFiqQoI5TS2S7R3w4BCldO0sP8ORcZMz7E7rpRaI6vEXDdocTUwMXI0LC8xmfp0y8bRm070MrW8tXEw5+EpQl8Z6lPfxk5PyxJ9bPaj3gbQeGV8qTgpMAhKyPnXTqiRt7qfxOme4gElX/7vgzM0kuGXjpC3Ph0PA8zdmLfoNZtTlV2ecb7rTUabUunYlSRhKrM3TuTlQjn2JZzanRVuciz/GQrIWzC+LORj33OEPx7WMOSf3FhxwU7g5AbGEw/vYrhPVSHG/zULSIx9GGqA/9iTzckymwY/0LIO8FBY0/gIEMRGoyHaRbROOl/JsPnkPHa39UadX16gVXT5QgEBy9eUIS4W7PUAFuVZGHUdH0JIwwZrzTcImi+Q89GGSybZ+Q24k1v4sT+QkWkxlLGhsgclWzf7oxBi+WsGHJST1XAkZesee9EjvOJrNOK/eAal2EDiYFXYvPOFfTA0ljYioPbsMAL4/bXj9X6w94QkyGHljiIHIQdZUJbDC0rv94/SKiDiikXmnocpj4ndQuYiEy23Y52i+45+/n+wSc9y+fz5q44OM2ku3xOaICLL2Ntk9XKB1+YjXuXB9cFCIc1vdkq08rmy6MdbthNE4DGfdJ9RSrwVjG46NozDfuXuLU0mhXzsGmKMYY6WK20L1dv1AheB71QwmEs8xP1CMLFIfZw9fUrzts4Hz9YLfOdtoLoJyDqqd1fEEz58ZYw27+J5sHhXIu2MjAGpeUkuKcjks9UKk+RYN98rP+wkqnhlIhlFF8vnYFur62BQgLAD/KlaiHTGL5LcVjvpykaqYk0LNKpHqcYVa1ZETndS10HtCv+YxYf6tZyHVFg6rmBEwTxHroof3AIvbYy5qY1EkKu6njCynRl63YDHodz6adItbjlHH3AcpAJ28F1u2DEvQXMWahYib3MuMNd9oMb8Hw3zmqE8OMRVTHSt3jOj+omv9wUSForZoJG46KIMbRqH9bD4DGju7Qtfr+33aS7S6O1Ze/es1Do3FJlhW/oLy+NkEbBpVAemAc/2z9peNoBGiQ594KbjObrDH8Ny6STNiRASeG//UfaD7SI8vb95e7mqYMVXFOUQZQs/59orWu3cH8xpG0XfoA8X/sIsrOq8URP1wzZuYouYLt8If+0GdzBGx31n11pAkcVmP09vJVOOMCVUL/F8nycq7W69KC1x8GJfh39Ifprq8li+y07Rvbw4ukSdd6bg//4NXRAg25pReYFQWktb3MIXakpN8TnDrTxIeCHNQ7EwldVCD+H+qqqqqqiFeQul76wjebsIbHx/23ZrXGiJNFZTXTGGcWISHuGegSAti5Zp0DHjT1bSnYfQIi9S4grZcoKjiFwN6VPc8CuDFMO1NE3yicSG6rRBD/9IWWGTqrRZbVWHDlmq3JN+9nRdKd/0k5bmsFOI2IDUhXNBcS4873pdfNe9utk3z9eIJxmOHzxpJbL5wt1r6AhsNT9WJOacr10Cz/mzgbJ7zC8xvnOKDYZfHSDAGLr2mz8+Ai1s/lGzL9VysAYPtLDkpijYQ2Z+oNoFLTw/8KJtLdgntRm38i8aGXJ9wkRcMMiXmNmiSuYrlBpIt6BvGUapF03fUZTdIExBkgOfisadUtpUoz+rjL6bnSBIgHNWweBD+B6YwJ9agu20tCwUzDS+CX9ZEmJeHhGe3HjaW72YXPBA9gaUrTdzhJ8sFrxCsy8cnn3mj8yHJiE59GgIH+oxHDa7VZN2LMv8ZszQI49EK1Z+mmmC/v9R9ZkZQAgcHTL2I/NHiKf2++VULevWGcvebICrKX4xIgIcCTMhsY/KgQXqUEQEfxiNWO0wDEHh/zDYj42p8a3cV9GfDi0z1VAuJkL++UU7uZ3+qWPsB7Qi+gLn4gW9do+UYd/kjTmlKsCVLAg0ZZgtdT3XkWUmEDuc5860blfHd5aBk5vf0Fg0feUUlHAjjQ9GR2H5KA4rwlDP6ykZA9zV/slA2sj4uP4NeZCsquvPyyUvbbiLfIuTBTESsW9iXUfSZnjp4qYuBwrsjGzkVtCls+jiVRYpelGkSBQE3UrguP8CE+o1lxIF+xS36frp9HBH5IOB66QKkueqzL0+R/CqNrmdxiV7R5ee+YwBlmhyRd1xxf6K+bzaxuY/m2gGkzBeSKqZj8lTObfBvKewq4YHFdj2/575YE7d5yuH/AK60F2efVlujY3Rx0aYtgB/BXf9SOxEAhjhI+ifaWZeJfkMxOEMnLkuzIAdQeFSj9QaBKtckk5qW8gEoS7YxK//7IgGLoCj04+Jjy9jpQH/5msPK9qJM3KdvjMmNcbEui2xOnGJ0uOiYPQ8iih3fecNYz76pFCL2+/oisFtB2DqO4Jl1qp2Zp6cQeJgNX2k7oZXhJOBQzHaMu1NPm4FDNhgHmBjEHyCGolPyHX/rentJSUOp9kQVtSQVCBOlkZZww+8DetHVAcI2s/FzGL/7dR9efbEhRung9a3MSE8ohI0nsrGHIew0R8hiIylfkfU3lzrzPK1de56CP6REFz+oV8KxSkgIs7QlNv4AZ0zqerSz3HsRJnulfrNM+EayWoISAgzO2LErULaD+cHakS+XMj/W1NpXias5ZV8sH+yMHiU9tJrq/FWJYHzs1HmevbIXHKlDT8grJ+ZOZ9Zhz4hx1jHkdeKhLhlgMkd/c7Kw0UC3OpD5XFYCil9n4myotuEEeONp2SIH1JqXCIO6Hwaj7uObZk2ys1BHxUWia4pmZhuInO2s7WEchbe1z/ZIY6jfluuMKdhxIW/w5BP3HDRx5vNkjTyVFSYXIhQ5Sf3JbSZ7pD2sorI9amx4AYo6uqkqKK2CJZBCPBTmGu+d3R+zv3TPOlmJStvMNxxYyJcYTG+qo99iZyZfSoUy2leUEbtio4UDbxHrRR1BBEjFgajyJ4Dlzgt4RJwcsVhPu1ZowvaRaLd44L6d9HpeTquPzz2krPYl34jydVSsG9O3yGNFlGhBaZ+chQ7+O52QU7p2RAqePLcB0/+SBtIa9DUWDCVGyyJ51yAYe7RYIUe8UKuEE13Tzol4lAJwTGDL/e6+9KSsjYQFEPzg5ce0AUQjehYcbmqCgIx6XzjoTp/jrF6L+lKJrEw/+2e8R0ptl0V9qoqqDgtin567E25IhSr7XNeVqIQdY6IkPpZDxpmZClim7d2kpIvA7tsR1Rp+bEA8+y0YfMfk77DG2efwyd7mQ71l3dPOpONpQ8TtjZTcY9FcE1nJ9MKV9+pCb5tuk6JcP4poXxY8HkwqvzqTeWPd9/OWdW0ztYY2DW+GKOi2XYh0Wp9U6wAQPKHs6lZZ9Vj/SsbIbE8dMmP7qfAaXSg9UvhKgSJp0SE8B55VELRka6UTqkeF1TlD4rrZq8J9/z2zjjGjgQK2aYgMBZbMK5XN/Damf2PSBx2/XdpdLFolIvyDCj4VHmmS7a2RCZD2bb1dRmZbKIuzdapW2PMnrFuXCXlhcQ1tUrk85yDMZhxPU/lRxZlxvKZKC3ZP4lZlSD8eCkRWEycx/U5ShJ4SU/SKS7wF6BuOPnvizNq0sUzj4r7j2rVbatw6+EnVcYc5pw+GNjSl4ySMoHVxg3x78ffMtxmK6INBX8iK8lPzd7Q70OuWFRyxU5ew0Eq72U5paP1d+SPff2OP9aIkC7Gk5gMazvsWPSh7g511hdpLSsBELDUd1mhulFbn7mQu/Jiza2v27pljFXwY1dy02ink0tWncnkgQMQhPPqFrw1yTJboKM6AuODg3S5yYgwP3Yf/g0ssQmOFDIiXDi2kiTe5VAe1+cXkFpx11jPiPt3UR7O46YoAp4jqISEuXjDsu7QQRCOKXvFHsJJZliLzyhidPw/rFvNrkzS5ZZpjYXWszvqKLzIwUIAU6Opl0PZebKZa4XuRd6Y6LQVcsyrnEOfLhyP0r+V8jJXuXQRkvEc3G96DCeuYpwTRvNp3qSY1Hc+yzWPSj7WailxAiLFpSh9tBQQrXAcBuDocW2Yz5oXGYuK5GpFB4wK5JBtm0Ytd5p4Cb11bALPRAc79Fk+35yvBp1YXi5izNWzQzrDa2nk7R2Ch5Xna4qkPmktDuAW4Fbt4FVVVVVVVObFJHX7IMkBn/5YMNfEEsbwmzwcfYqgjN5pJJzQwxyQNV6MUsacpnRKSezuzVZFC2OjUXaDtHb/oUnJ+CKooO7ZunCUkz+NgwwHlkHlql/GUiujPqwiLWFzl/6jJtwzdLYy9qfD7D07x9r9BuJSVUmehTC0f+0TDR8f76VluD8RbknGiCqwRCNXHbYHMckws0htoO2nLo/tWumzUcJEFvRdhxFkY163XT/nGyID4XGw52qUI+e8eZRFlI5V89XQissHcTPVxAARwI9AX0IQtUUnOKSfaX3HzZps+sPJ9Om/DniKRn8a1UMTOj0NyuUG3u38s4COITD2u51YK93++fPcHwEkkJgnvpDFMoYsx5bzPL+r8VYIjPTA7V54c6JjlNCYIHx3txxT8EnhaCX6uaRjxk29bCKKIp96TMi/0AtvUM0LdRDgwglZ0Vs+NesVdsgQGEUwx79a/3nhE3e4qjDD1+e7fpBzIfxU1AVfNCOUSeljmzp5RNu3w3bfQc88+aBuJ+xZcvMcKL6JbUtk6fnAGVfediR9X8/n/PlDTaytAm5zczzQskz2tjfyXUQmBzioGDQ+MDFP2b8ik1HyQ8KFrHpMduQFRU936VnKF5bBPnQJm/dwWu8h0bkaTh90YPsp6fomd4p7eVCD+5nqAHiQnTqhkRTBvyoIlz2Wv62CBOv7maY1kQxc/EV/////EaljR1ayMSYklgizNFnSbF7rAET6TL5eDxAuNxhdPeC/ElTAfvc4ONf8+uPa+w1i4C1B6t3zyM87TH1E00n/uyQ7cBoeGtfADbzU7vjRG2vDCDWq9wYOXwuffNzxilObbb3PDKkGy3iSQPw1VTXbRvkr5sEQuA95h0jlvE3ArmvlDN7/ydBZSTzeNOIjEGs4olYvD4d/UdmoG8LRZBDI6EI9L6/qdktTsMWgTBZFW5uVhBMQgUyggvwKbaW8kDoqxo3H+M63DGmO3v9z5VvNzVOuYsRIVHFpmRS5GdbtGf0TunF0xaBzuxSyVjVaD43lcKs52a9cRmNhb9syfLUbS3+VREvfUKe85o5PI5YAzF4e2csBI2VaCwERaj8aCWSQFmeRB9aDkYw89ERpeVu7DIWkfmIRNCxY8ipgE9o0RqAzfu+89BMnxPxyxokI+XzDgOdehq76HORMpwi9zJDQnEsaJYc8I0WzeuCc+lmVVb4VhN3p+qp8vtG8mrXFbMvu16p9dGVMN9Iq2ByxGE83OqmlY3D8PlZqZn7+LJcBi9dyniqcBVRfzIcnnn4fYMvA8UjXWkyW4pANWL8Q6VFP6ijjak9hm6ye+hs/no/kjAw6b9wjaDoakgYBJ8XpakhfwaBfFdA9LBQ6O6SPET4syp5HtWdh0vqmCj9eYYZ67RDNUAWyRC/GzVEzz9XHYhxaWIWSI1euqFXJ7vL/JhC1Esb38cdH+3CFXrQ3V1T1eTB4CBjxvHEcAyfDrD4YsBJkjTNt8QsjAc3uTHsaAxfZ3swnnSH5F9Yc9jSruyFOfvX+RdWX245CDd5fvdf3ESE7lVXNj246gav+yjOLqA9aHLV3JEaz0DVtsEQGFonjpURjpC23uf2UQESc82jCDVWpzpSYUOVC8hUUSF66fYp7QcyspHt/PwWFrX74MVbl4+LldVP1WJrofefhAkrog+r5qIiY2TKKqQXvzJhPjP2EF+R8PZNLZEfM+mAOMyyJ5OuZKfYC+aUPPHAmEuiUDGjg2+D+2BGf959BhzLcc651vgWlWoXpDTRxy8UM5VeFw/Crlsduwn6vVdIZWrJNi6JWlhoykEnQByS+kYNeZqlGv9UIaEWSalaZ3Goaj9WleQuNhSyjTmQvPwHTGmCnL6gDmPGcSblcp2yGExRamgPj5rWJQL6xXs11llDslT+1dcZe09BMGS+Zm+1gxA62XlEwJzd7ccocyNu9q7WgKFJo0YdMjuIi9zSg8CygGOQG08HfbHEWX9m8awl5WN+kQqw+OFDGgmOgUP3ARmgp9fbOhBv9AvJaM7Us5QuUQ2+VVEL8fOeD3I0oTajxc9Ap9kLlPdg67qT3vVa0quDZ2YrYemLE2sxvwmoBnuXV3Ckvov0je6biGpPXUdqk/19bYLy2yRON90ZQQ/DPz5Jj1Iw/sODdrGeJCi+Kz28voJi+gacLbXdU1Uc6DYa62Zakc3f4Q9SZTK/H0mEz3+uTXzCqlwfWdTASrDQJ8A0Hr0n1mvVO/9C6tsffN0eJe7GI6WWaHBXaac8Sy/OKHYGAiHHqFYxRf5LulzSN5loHjLxbK/gzzYexaP+NoIgRGe8wMk3bziF1LMovnvFlLRHb4Prtj4rNefycDQKe0LceHNPYnEHw90XtXBBllp3h2vQOsR81ok2iB57kEYkFEc7o+9iaVZhMBr2OzJSuhRQcC9aTJmAsS8lC6wUeoCtR7Cf5G81DRRcqIMrv9ejb1bwyaL4uew8H0bHmQfbQmIM7dHt+bqhHuAGLYA5osqdtzY08olYNgBdTxrwmYoLwQfU3zrzxCvLYicKICFUdrU13VSRWIIzxMz4xeIYYOePJ1nGyJUz9Kf9PaG6/Rb3OgZvj0wD+p25gXICBifejHegP/K8a4zT+DnjxNxyNMJFY1T+5tvvuOen6vFCBNNvMg9wwhgzqzfkIN5HFTLcPL0IEDX1o1hXvDv7pwOG3psglz4EkslznmZMKErLOU33bJNR0jtKKagJNCGZc2TnDKsPhRUrJTNwgAAnXFriNflYa9LHs8ZKTC9FJ9ywXyv0wBa4/u/LSEkwGWOfSZAo02IQr/Y5kEW+KaKYsTvAHzno6lXufIR2Hnqw6OcqpfYgkUKzqdRK5yEREUAhnwlTiPi1Zok1MCHTjSfPentUtTsuzIgoEO4z9kAwqneyir1sgFhIdRpeaBX7Cr9LPYcppe/zLhFT0NDCZHliD5PYBkqIk2vDRPAtOgHrRFJbU2GBgFdBzUlCAva1+++vtMfBVcm1bgSMoMsKZcci/NTLG5DrTkeik1aKmRK1dC/2Yf+0f9j4At6KRih3l/NBwXOu6bL0o4tDQ+CWUYcm3kfe7SeAVhyGHKif6LFMLXeA0n6RWHHdfZybyrpebn5uZ0hjTphtPKorn1G+htiQ7cRRuAq7cl+7TQqshXf3h54WSCjz9J5nvQ9ZmMwd1jUcdByEHm2dD3k2MiNxGc2mkmo47mAK5d9aUWpuShqg+ID88iadNeVGBvHmD8V1c04p6n6fAYOUXY2CLGJac9Dx5IkJPR3sGcT1K3AjVTo2rr4zBdITdo/Ojqjvqab5sf6UCnlWo7PIbPBYe7ZV+vdJEIEHmm5ou4oMUDBDCEa/EISrN1Xsj+BdUbExxYhGnPCLk6TFqxei8NPCfLp92tX9Ilf+BJIaJlnUgHJa1yXd7SBH0OvljaIxpS5ESVe5xv7miznvbYVq1LaupIFk+yIiWgBrR9zayMeIeMr1rQ41+697y9zy4hwPX8WcBy3ylTxkfEJNwtQFVTaLAo8ZDbDGW6Sx5+aTEouMFM4ZBGmuH2tgK/Xro0xehzfPF7ym1p2S/WXru+f2FJGnEm3NSfv+QMddILLln1zk8O35JQmq444MdrfPoLqQsaEottpBnlDAZCZPnYDdPRBIGnVFfTRrC9arZZDJIIOvdOhUEO7VFoJmzApk1D7r7XVPcUqMAAR7AS+NBrbKA+M/vxjMiTpwvUKiNZasL2v6pZzjbwi2f/6oY3Rv3AvazrMiEWikSRKV7RGJPd7HBTNmDhiY8Bznv2l+Pt6+tZBT2Sv5QgSkZt0CeDkco5GWrdIRFhuBqAynZq4WVo+z7z3JSVTE47P00QXz1TUsGb3F6AADcNBcubNLusBBMTmGdH7qwPOsde+fqKaXDU/l8+IiS2lmlfUoaqIf71Xn4ps8bIuCmGsVTgJNEhxeoeMWioAcRilYKVONcg6dQ/aT7LoV///8d1sxecQCDzs9C1x6EQdgg0r/6KBK6ta1GjvJ+obsHEWw0bUrM4NZnVcdwJh0B+xze49XUHuKCFKhYxd5VJnD3zMtfcSpAane8y/HGqiFKDDr3sSbRgDnndiQrMGkHbHRjNM8HOJytB8LLGVas9SRIKdiFto24x2/uGgAZOJ1qXw8PDw8y0Phb8X32SwwN9bR+awbGmPk3K/yyAfqnSo0TTrSotiKvxlVVnUM9aBz3PGeX10b/fUHKapGvl2+Iy8Y9k+nbyfOq9p42P1PnVDzPYHI6Ah9IFAIesfqL7vE7YyrfLHljlqsGoX9FvuOzRlosFdcjYyfdr7Jp3zO0KH4I3yv7OXrztnufNGhHb/89F9fqgQO+bcdM5nS8Z/OxmbBZzZFMh+t5G71K88g3QRLPNgl9IzASHJjcaBMqW6hHAZ2TVbsyHCKk5YcVYVWiC7znjm1hcWYFA0uNwwyA4xryMECjf9yb8w4yREgE5AfolgD9MsNSwakhKlgwRiF0OTnpqIBwYt1M9XjsdLSEJMJp7kbPv5o0PS8PKUSXZtPGsOgqQH2JKGYwq+lj6K9XCRTymQZjjdm6xFpTJxaOfCvtVQcLJyPJC96CV8DwuIk0J1iqcpKd2D8xbOFcYuKEuZD3JFEbad4NEf9Yh7xhiR0I8Vaafvg81QK8sU9BiedLtb6q9whUYWMRXC6d9Tv+qsSoK+sAF2F3meHxBXmLJ26N9CLfs4/phtMzjaF12uOOtQRJJrHunyCbMRvp45AfKStx8vQH0tCVeM3sN5RGf8xJaa6IrludzZQRtEur73k79MB/iVHytzN5sbQFTyZbU45XdX/KBLCjbzAAyGMT86bKLywKd3Wm0xYEsb73EggvNvDsnHI8gAhNk/kXoyRTkQkB2IbuTi5viDuCRbFxTDgoeirRJal0uN/w3AqyoF4kuWZQxI5ZwOXYj9xeiozWTiBjMm0qfTgU5u3ajDrplfyLOPKMf6lDV/Mmix6rkyBssoqBwJ17kXQlJDUEcwWgOsaIGl63reiYVVGWSGBPGwAfRXOaEbH/JlMfv2bVyOIhH64J+lRt1qHmD44H3Q2IRQUQRHUdtvPy0fBBdnvakNcVfh4usYBYOGy8uG6BsdhaVVGTKZm+D9/oRMksmifwJ1F9pcQmR55xAv4FGLWMe8rI01iVqrmglEOfsOgeaOaD651DH3GIJFPONcwZJhMn26PWSe/CysgUzWOWmaFI//atqpOkvtqKT3qxkRBV61/DdjyJlr2SzYqpbY1Fbab1Ns8s7/okRwoYILfmKUVRbpAXS1YR1AuYOtCK1iXU9m5XueOUcinXPxo0FoiFpQiAmasLqXJoeOXG9IWkx/8Swal+U7iEqoB8YRNq/2Yytwk9hwc3c8fGFKBgY6Q0Pq/ZuijCfUDLsr/bjU4J264vpxARiZQl+nbsDdatq0TNAFkzh1aUtU1PvmerG90RyQvukThvpycHoGAeKlmu+HWNzJH17Jf/HEvOfCslLyt9S/2wcrVo4mZvc+0k73em8ihgEo12fUns9y1qeXKAA8ysDD6mAg9CKmrXBR+MF6Ldbw76bFHg8qqWC4dWm1pmlMbugZaEftjmsPQOg50+HKFJm1UNWiORMkxno/g6AR8RiNSX+2SUhOYWC2SvcTqPhbD5gGaIFERUBu4Rl42zVbynrXVJGWsfk1+z73yikV/nCuI5HDAZL8q+lEO5DRQLeNViy9AU1Sig5IZj5vFLA5v9nL8rsexB/3rGp+KQaF5vrZNhja3IzveGyQcgholP2ByoJWUL1Zxpfcfsp9l5uazzUMWeAbJNs+s3Fk2oJXDb4t6Popjo8s+zXNc1MebFQtXr/S9fG0iMyPWTCMahS7JvLb1tqWPn9Oo09fIpXykwnKV+QnUfRIYHji1ouqP4qWrYemJJJLV9mgVSuKm/igAKCXq0I0u/+nydtukXIfoiTyyJjCxtfKkEjxsMHtGdY+Ety5nyvJhGx7gnmmxW+e6Kpd6rPKCnq38S+lCD31k85ME73lTxFII0jTsqu2w37Vp5Pn7WGWgGivC5JcrTyyr5uE0URkbBDa18NOH2na/qedjuZyvL8PEoC/rn1z9vj2DXQJTrSB7QvtCr17dKRv5tKMhWxI2oDK9znSqwMNa/fjD6d4AAOlK4jHf/7sGlu1Q3cEe0aDrttZCQUR0T9xhk0HoGvwsc0wSabYOoFNK5MRRrsB5/4n6Llqisf786GxPgGJ+5cW1AoiuuQcWaHWii+Qp33zrHyQX2ZmG/BEYRIBRUvT+aJ9LjXaStMWa5OBPhUJu21E0oaWBJaQYJBlcfEu47eEZs84/Fc+Lg3e9a6WuIdpWVPl+jZXWZDmY/AabO9Nltmuu8ovC8zPiL1IvJ/6NFdARW5T2HuSTFFQI3ZrRuWK99+/NxIQxUh+U/xkWNGO4n7bqVCuWPoPKdQMBtlBNg=;" vertex="1" parent="1">
          <mxGeometry x="-309.99766816143494" y="30.00333333333333" width="63.49166666666667" height="33.333333333333336" as="geometry" />
        </mxCell>
        <mxCell id="ohWQshDICcBfZKWhLThc-2" value="" style="rounded=0;whiteSpace=wrap;html=1;" vertex="1" parent="1">
          <mxGeometry x="-70" y="90" width="1060" height="70" as="geometry" />
        </mxCell>
        <mxCell id="ohWQshDICcBfZKWhLThc-3" style="edgeStyle=orthogonalEdgeStyle;rounded=0;orthogonalLoop=1;jettySize=auto;html=1;entryX=-0.006;entryY=0.607;entryDx=0;entryDy=0;entryPerimeter=0;strokeWidth=3;strokeColor=#808080;" edge="1" parent="1" source="iNa71B6rXoqSezd_o_Xe-12" target="iNa71B6rXoqSezd_o_Xe-22">
          <mxGeometry relative="1" as="geometry">
            <Array as="points">
              <mxPoint x="30" y="593" />
            </Array>
          </mxGeometry>
        </mxCell>
        <mxCell id="ohWQshDICcBfZKWhLThc-4" value="&lt;b&gt;Orchestrator&lt;/b&gt;" style="text;html=1;align=center;verticalAlign=middle;resizable=0;points=[];autosize=1;strokeColor=none;fillColor=none;" vertex="1" parent="1">
          <mxGeometry x="-70" y="60" width="100" height="30" as="geometry" />
        </mxCell>
        <mxCell id="ohWQshDICcBfZKWhLThc-5" value="" style="shape=image;verticalLabelPosition=bottom;labelBackgroundColor=default;verticalAlign=top;aspect=fixed;imageAspect=0;image=https://upload.wikimedia.org/wikipedia/commons/thumb/d/de/AirflowLogo.png/800px-AirflowLogo.png;" vertex="1" parent="1">
          <mxGeometry x="393.88" y="95.6" width="152.25" height="58.81" as="geometry" />
        </mxCell>
        <mxCell id="ohWQshDICcBfZKWhLThc-6" value="Local" style="text;html=1;align=center;verticalAlign=middle;resizable=0;points=[];autosize=1;strokeColor=none;fillColor=none;" vertex="1" parent="1">
          <mxGeometry x="535" y="765" width="50" height="30" as="geometry" />
        </mxCell>
      </root>
    </mxGraphModel>
  </diagram>
</mxfile>
